<svg width="124" height="110" viewBox="0 0 124 110" fill="none" xmlns="http://www.w3.org/2000/svg">
<path d="M124.008 70.3518C124.008 76.1722 122.153 81.3179 118.525 85.873C112.705 93.1275 106.8 100.382 100.895 107.636C99.4611 109.408 97.4366 109.408 96.0026 107.552C90.0134 100.213 84.1086 92.9588 78.2038 85.62C70.1058 75.5818 71.4554 60.3979 81.1562 51.7094C88.4951 45.1297 97.0149 43.1896 106.378 46.2263C115.995 49.4318 121.731 56.3489 123.755 66.2184C123.924 67.5681 124.008 68.9177 124.008 70.3518ZM98.4489 81.0648C103.848 81.0648 108.318 76.6784 108.403 71.1953C108.487 65.7123 103.932 61.1571 98.4489 61.1571C92.9659 61.1571 88.4951 65.6279 88.4951 71.0266C88.4951 76.594 92.8815 80.9804 98.4489 81.0648Z" fill="#3B4672"/>
<path d="M51.3781 109.155C43.0269 109.155 34.7602 109.155 26.4091 109.155C20.7573 109.155 15.6117 107.721 11.0565 104.262C2.7054 97.8513 -0.837484 89.3315 1.10267 79.0403C3.12718 68.749 9.62252 62.1694 19.7451 59.3013C22.0226 58.6265 24.3002 58.5421 26.6621 58.5421C37.0377 58.5421 47.329 58.5421 57.7046 58.5421C62.0067 58.5421 65.1278 55.2523 64.7904 51.2032C64.5373 47.6604 61.5849 45.0454 57.8733 45.0454C49.1848 45.0454 40.5806 45.0454 31.8921 45.0454C30.9642 45.0454 30.1207 44.961 29.3615 44.4549C27.8431 43.527 27.0839 41.9242 27.5057 40.2371C27.8431 38.5501 29.2771 37.3691 30.9642 37.2004C31.2173 37.2004 31.4704 37.2004 31.8078 37.2004C40.4119 37.2004 49.0161 37.2004 57.6203 37.2004C62.0911 37.2004 65.9714 38.6344 68.9238 41.9242C72.8041 46.2263 73.9007 51.2876 71.8762 56.7707C69.8517 62.2537 65.887 65.3748 60.0666 66.3027C58.97 66.4714 57.8733 66.4714 56.7767 66.4714C46.4855 66.4714 36.1942 66.4714 25.9029 66.4714C21.0104 66.4714 16.7083 68.3272 13.3341 71.8701C6.50137 79.1246 7.00748 90.2594 14.4307 96.9235C17.8049 99.9602 21.9383 101.31 26.4934 101.31C43.7861 101.31 60.9944 101.31 78.2871 101.31C78.7933 101.31 79.3838 101.31 79.8899 101.394C81.9144 101.647 83.3484 103.25 83.4328 105.275C83.5172 107.215 81.9988 108.902 80.0586 109.155C79.5525 109.239 79.0463 109.239 78.5402 109.239C69.5143 109.155 60.404 109.155 51.3781 109.155Z" fill="#DBFF00"/>
<path d="M17.8901 0C25.2289 0.337418 30.8807 3.54287 34.0862 10.2069C37.2916 16.7865 36.4481 23.1131 31.9773 28.8493C28.0126 33.9105 23.8792 38.8875 19.8302 43.8644C18.6492 45.3828 17.3839 45.3828 16.1186 43.8644C11.9852 38.8031 7.76752 33.7418 3.7185 28.5119C-3.36729 19.5703 0.0912291 6.15788 10.5512 1.51837C12.9131 0.506117 15.2751 0 17.8901 0ZM17.8901 25.3907C21.7704 25.3907 24.8915 22.354 24.8915 18.3893C24.8915 14.509 21.7704 11.3879 17.8901 11.3879C14.0941 11.3879 10.8886 14.509 10.8886 18.3049C10.8886 22.2696 14.0098 25.3907 17.8901 25.3907Z" fill="#3B4672"/>
</svg>
