<svg width="118" height="120" viewBox="0 0 118 120" fill="none" xmlns="http://www.w3.org/2000/svg">
<path d="M58.5183 0L19.6328 23.0769L58.5183 46.063L97.4037 23.0769L58.5183 0Z" fill="#DBFF00"/>
<path d="M19.3613 68.1404L56.3388 89.8545V48.6068L19.3613 26.8927V68.1404Z" fill="#3B4672"/>
<path d="M97.6767 68.1404L60.6992 89.8545V48.6068L97.6767 26.8927V68.1404Z" fill="#3B4672"/>
<path d="M39.6217 102.847C36.0784 96.6685 31.4448 97.0319 28.5375 94.1246C25.6302 91.2173 22.0869 87.2197 18.5436 83.949C16.8173 82.4045 15.2728 81.5868 14.0009 81.1325C13.0923 81.1325 12.1838 81.4051 11.457 82.1319C9.54904 84.0398 9.63986 85.8569 11.8204 88.7642C14.7277 92.8527 21.2692 99.9393 21.36 100.03C21.8143 100.575 21.8143 101.393 21.2692 101.847C20.9966 102.029 20.7241 102.211 20.3606 102.211C19.9972 102.211 19.6338 102.029 19.4521 101.756C19.1795 101.484 12.7289 94.3972 9.73073 90.2179C8.54963 88.5825 5.55145 84.3124 9.73073 80.224C10.0033 79.9514 10.3667 79.7697 10.7302 79.588C10.5484 76.4081 10.0941 67.3227 9.73073 63.7794C9.36731 59.4184 3.00754 58.1465 1.55388 63.5977C0.554484 67.2318 0.463652 77.1349 0.100237 82.9496C-0.263179 88.7642 0.372765 93.3069 1.82643 94.7606C3.28009 96.2143 15.182 107.934 17.7259 110.115C20.2698 112.295 21.1784 119.2 21.1784 119.2H42.2564C42.2564 119.382 44.9821 112.295 39.6217 102.847Z" fill="#3B4672"/>
<path d="M77.4155 102.847C80.9588 96.6685 85.5924 97.0319 88.4997 94.1246C91.4071 91.2173 94.9504 87.2197 98.4937 83.949C100.22 82.4045 101.764 81.5868 103.036 81.1325C103.945 81.1325 104.853 81.4051 105.58 82.1319C107.488 84.0398 107.397 85.8569 105.217 88.7642C102.31 92.8527 95.7681 99.9393 95.6772 100.03C95.2229 100.575 95.2229 101.393 95.768 101.847C96.0406 102.029 96.3132 102.211 96.6766 102.211C97.04 102.211 97.4034 102.029 97.5851 101.756C97.8577 101.484 104.308 94.3972 107.307 90.2179C108.488 88.5825 111.486 84.3124 107.307 80.224C107.034 79.9514 106.67 79.7697 106.307 79.588C106.489 76.4081 106.943 67.3227 107.307 63.7794C107.67 59.4184 114.03 58.1465 115.483 63.5977C116.483 67.2318 116.574 77.1349 116.937 82.9496C117.3 88.7642 116.664 93.3069 115.211 94.7606C113.757 96.2143 101.855 107.934 99.3114 110.115C96.7675 112.295 95.8589 119.2 95.8589 119.2H74.7808C74.7808 119.382 72.0552 112.295 77.4155 102.847Z" fill="#3B4672"/>
</svg>
