<svg width="154" height="102" viewBox="0 0 154 102" fill="none" xmlns="http://www.w3.org/2000/svg">
<path d="M76.7205 86.8058C100.418 86.8058 124.2 86.8058 147.898 86.8058C148.577 86.8058 149.342 86.8058 150.021 86.9757C151.72 87.4853 152.909 88.7594 152.994 90.5431C153.079 92.4117 153.079 94.2803 152.994 96.1489C152.994 97.7627 152.145 98.9519 150.871 99.8012C149.427 100.905 147.813 101.415 146.029 101.5C145.265 101.5 144.5 101.5 143.651 101.5C98.6343 101.5 53.6176 101.5 8.60084 101.5C6.39247 101.5 4.26903 101.16 2.48535 99.7163C1.21129 98.6971 0.446867 97.5079 0.531804 95.8092C0.616741 94.0255 0.531804 92.2418 0.531804 90.5431C0.531804 88.5895 1.7209 87.3155 3.58952 86.8908C4.26902 86.7209 5.03346 86.7209 5.71295 86.7209C29.4104 86.8058 53.108 86.8058 76.7205 86.8058ZM76.8904 93.7707C67.2075 93.7707 57.5247 93.7707 47.8419 93.7707C47.3322 93.7707 46.8226 93.7707 46.3129 93.9406C45.8883 94.0255 45.5485 94.3652 45.5485 94.7899C45.4636 95.2146 45.8034 95.5544 46.1431 95.7242C46.6527 95.9791 47.0774 95.9791 47.672 95.9791C67.1226 95.9791 86.4883 95.9791 105.939 95.9791C106.279 95.9791 106.703 95.9791 107.043 95.8092C107.553 95.6393 107.977 95.3845 107.977 94.705C107.892 94.1104 107.468 93.8556 106.958 93.7707C106.449 93.6858 105.939 93.6858 105.429 93.6858C95.9163 93.7707 86.4033 93.7707 76.8904 93.7707Z" fill="#3B4672"/>
<path d="M76.7207 0C96.5111 0 116.386 0 136.177 0C137.621 0 138.98 0.169854 140.169 0.934289C142.122 2.20835 143.057 3.99204 143.227 6.28535C143.227 6.71004 143.227 7.13472 143.227 7.47447C143.227 32.0213 143.227 56.6531 143.227 81.2C143.227 83.3234 143.227 83.3234 141.103 83.3234C140.084 83.3234 138.98 83.3234 137.96 83.3234C137.281 83.3234 136.941 82.9837 136.941 82.3042C136.941 81.8795 136.941 81.4548 136.941 80.9452C136.941 56.823 136.941 32.7008 136.941 8.57864C136.941 8.15395 136.941 7.72927 136.941 7.38952C136.941 6.62509 136.686 6.20041 135.837 6.28535C135.582 6.28535 135.327 6.28535 134.988 6.28535C96.0864 6.28535 57.2701 6.28535 18.3688 6.28535C18.0291 6.28535 17.6893 6.28535 17.3496 6.28535C16.84 6.28535 16.5002 6.54016 16.5002 7.04978C16.5002 7.47447 16.5002 7.89915 16.5002 8.2389C16.5002 32.5309 16.5002 56.9079 16.5002 81.2C16.5002 83.2385 16.5002 83.2385 14.4617 83.2385C13.3575 83.2385 12.2533 83.2385 11.2341 83.2385C10.5546 83.2385 10.2148 82.8987 10.2148 82.2192C10.2148 81.9644 10.2148 81.7096 10.2148 81.5397C10.2148 56.7381 10.2148 31.9364 10.2148 7.13472C10.2148 4.58661 10.9793 2.46316 13.1027 1.01923C14.3768 0.169859 15.7358 0 17.1797 0C32.8082 0 48.5215 0 64.15 0C68.3969 0 72.5588 0 76.7207 0Z" fill="#3B4672"/>
<path d="M76.8903 68.2046C64.5744 68.2046 54.8916 58.5218 54.8066 46.1209C54.8066 34.0598 64.6594 24.1222 76.8054 24.1222C88.9514 24.1222 98.8042 34.0598 98.8042 46.2059C98.8042 58.4368 89.0363 68.2046 76.8903 68.2046Z" fill="#DBFF00"/>
<path d="M89.2909 38.9013C89.2909 37.0326 87.3373 35.7586 85.6386 36.4381C84.9591 36.6929 84.4495 37.2875 84.0248 37.7971C80.8821 41.6193 77.8244 45.5263 74.6817 49.3485C74.0871 50.028 73.6624 50.1979 72.9829 49.5184C71.7089 48.4142 70.3499 47.31 68.9909 46.2059C67.5469 45.0167 66.0181 45.1017 64.9139 46.3757C63.8946 47.5648 64.1495 49.1787 65.5085 50.2828C67.6319 52.0665 69.7553 53.7653 71.8788 55.464C73.4076 56.6531 75.616 56.5682 76.8051 55.0393C80.7972 50.1979 84.7892 45.2716 88.6963 40.3452C89.121 40.0054 89.2909 39.4958 89.2909 38.9013Z" fill="white"/>
</svg>
