<svg width="130" height="61" viewBox="0 0 130 61" fill="none" xmlns="http://www.w3.org/2000/svg">
<line x1="4.37114e-08" y1="59.5" x2="103" y2="59.5" stroke="#3B4672"/>
<path d="M3.47624 34.6609C2.11597 34.8876 0.831268 34.3586 0 35.7189C0.755707 37.7593 0 40.1775 0.377853 42.6714C1.2847 42.6714 2.26711 42.6714 3.40067 42.6714C3.62737 44.7873 3.02281 47.2056 5.81892 48.717C6.04562 48.7926 6.95247 48.2636 7.48146 49.1704C7.70818 49.0193 7.85932 48.7926 8.01047 48.6414C7.02805 42.8225 8.08603 37.5326 12.6203 33.5273C13.6027 32.6205 14.2072 31.2602 15.7186 30.8824C17.0789 30.5045 18.2125 29.6732 19.5727 29.2954C20.8574 28.842 22.1421 28.3885 23.5024 28.5397C24.9382 28.7664 26.4496 28.2374 27.8855 28.7664C29.1702 29.2198 30.606 29.5221 31.8151 30.1267C33.5533 31.0335 35.1402 32.1671 36.5005 33.6029C37.9363 35.1143 39.221 36.7013 39.75 38.5906C40.279 40.4042 41.0347 42.1424 41.1859 44.1072C41.337 46.1476 40.4302 47.9613 40.5813 50.0017C39.75 50.7574 39.9012 51.9665 38.7676 52.8734C40.4302 52.8734 41.7149 52.8734 43.2263 52.8734C43.3018 54.0069 43.2263 55.1405 44.0575 56.0473C46.1735 56.0473 48.3651 56.0473 50.1787 56.0473C51.9924 55.4428 50.6322 53.7046 52.1436 53.0245C54.8641 53.0245 57.7358 53.0245 59.4739 53.0245C62.6479 52.1932 63.2524 49.9261 65.2173 48.8681C64.9905 44.0316 65.0661 39.1195 68.6179 34.8876C67.1065 33.7541 67.0309 32.0159 66.1997 30.5801C67.1821 29.2198 68.9202 29.9 70.0538 28.9931C72.3964 29.2954 74.6636 28.1618 77.0062 28.3886C78.4421 28.5397 79.8779 28.4641 81.3138 28.0107C82.2206 27.7084 83.5053 27.4817 84.5633 28.3886C84.8656 28.6153 85.5457 28.4641 86.0747 28.4641C87.7372 28.4641 89.6265 28.0107 91.0623 28.6153C92.4982 29.1443 94.1607 28.4641 95.4454 29.5221C97.9393 29.4465 100.131 30.6557 102.473 31.1091C103.154 31.2602 103.607 31.7892 104.287 31.7892C104.816 33.3762 104.514 35.1143 105.799 36.4746C106.781 37.5326 108.066 38.6661 109.502 39.044C111.995 39.7997 114.414 40.8577 117.059 40.631C118.041 41.3111 119.175 41.16 120.308 41.16C123.482 41.16 126.429 40.4042 128.923 38.2127C129.225 37.9104 129.83 38.1371 129.981 37.6081C129.906 37.2303 130.208 36.7769 129.679 36.3234C128.167 36.7769 126.656 37.7593 124.767 37.3814C122.726 34.9632 120.459 32.6961 118.494 29.9755C118.041 29.371 117.361 28.842 116.832 28.2374C115.245 26.4993 113.658 24.61 112.298 22.7208C111.542 21.6628 110.408 20.8315 109.502 19.8491C107.839 18.111 107.688 16.8263 109.124 14.937C109.653 14.2569 110.031 13.5012 110.484 12.821C110.937 12.2165 111.391 11.6119 111.844 11.0829C111.466 10.8562 111.315 10.3272 110.711 10.3272C108.141 11.9898 106.857 14.937 104.363 16.9774C104.363 18.9423 104.363 20.9827 104.363 23.1742C100.358 21.5872 97.1835 19.0934 93.405 17.582C93.2539 16.4484 91.8936 15.995 91.818 14.7859C91.6669 12.6699 90.9112 10.8562 89.7776 8.96695C88.6441 7.00212 87.1327 5.64186 85.6968 4.05488C84.8656 3.07246 83.732 2.69461 82.2962 2.84575C81.9939 3.2236 81.616 3.67703 81.087 4.43273C81.087 4.81058 80.7848 5.64186 81.616 6.32199C78.8199 9.1181 75.2681 10.9318 72.3209 13.5768C71.943 12.8966 72.0186 12.2165 71.1873 11.9898C70.2049 12.6699 68.4668 12.9722 68.8446 14.8614C66.7287 16.4484 64.7638 17.8843 62.799 19.3201C62.4212 18.9422 62.0433 18.5644 61.6655 18.2621C60.3808 18.2621 59.1716 18.2621 57.7358 18.2621C57.7358 20.0002 57.7358 21.7384 57.7358 23.552C56.5267 23.0231 57.5846 21.9651 56.8289 21.3605C56.3755 20.9071 56.1488 20.0002 56.1488 19.3201C56.1488 18.4888 55.1664 17.8087 55.6954 16.8263C56.5267 16.8263 57.5091 16.8263 58.4159 16.8263C58.7182 16.4484 59.0205 16.2217 59.2472 15.995C59.2472 13.9546 59.2472 11.9898 59.2472 10.0249C59.0205 9.79823 58.7938 9.57152 58.5671 9.34481C57.6602 9.34481 56.7534 9.34481 55.6954 9.34481C55.6198 9.64709 55.6198 9.8738 55.5442 10.1761C54.9397 10.4784 54.2596 10.4028 53.9573 10.3272C52.5214 9.8738 53.3527 8.51353 52.5214 8.06011C53.0504 7.22883 53.7306 6.69984 54.5618 6.39756C54.5618 6.01971 54.5618 5.71743 54.5618 5.33957C54.3351 5.11286 54.0328 4.81058 53.8061 4.58387C51.2367 4.43273 48.7429 4.73501 46.1735 4.35716C46.0224 4.35716 45.9468 4.13045 45.7957 3.97931C44.511 4.73501 44.511 4.73501 43.3774 3.45031C43.3018 2.99689 43.7553 2.92132 43.9064 2.54347C43.6041 2.4679 43.3018 2.31676 42.9996 2.24119C42.6217 1.7122 43.3774 0.65421 42.2439 0.351929C41.4882 0.351929 40.6569 0.351929 39.8256 0.351929C39.6745 0.50307 39.4477 0.729779 39.1455 1.03206C39.1455 1.71219 39.1455 2.39233 39.1455 3.2236C38.692 3.60146 38.2386 3.97931 37.6341 4.5083C36.1227 4.5083 34.309 4.5083 32.5708 4.5083C31.2862 4.5083 30.3037 4.88615 29.3969 6.09528C30.0014 6.69984 30.606 7.37998 31.135 7.98454C31.135 11.9142 31.135 15.7683 31.135 19.7735C29.7747 19.7735 28.4145 19.7735 26.9031 19.7735C26.9031 18.111 26.9031 16.4484 26.9031 14.8614C26.5252 14.4836 26.1474 14.1057 25.8451 13.8035C25.8451 12.0653 25.8451 10.3272 25.8451 8.51353C24.9382 7.45555 23.9558 6.5487 22.4444 6.5487C21.9154 6.85098 22.0666 7.53112 21.6131 7.98454C24.1825 9.8738 24.1825 9.8738 24.1825 13.7279C23.8802 14.0302 23.578 14.3325 23.1245 14.7859C23.1245 16.3729 23.1245 18.0354 23.1245 19.7735C20.8574 19.7735 18.6659 19.7735 16.5499 19.7735C15.7186 20.6804 14.6607 20.6048 13.7538 21.0582C10.8066 22.5696 8.01046 24.2322 5.13879 25.8947C4.30751 26.3481 3.85409 27.255 3.47624 28.6908C3.47624 30.2022 3.47624 32.3182 3.47624 34.6609ZM54.3351 22.9475C53.5038 21.8895 52.068 21.6628 51.3123 20.6804C51.2367 19.0934 51.1612 17.6576 51.8413 16.1461C51.3879 16.1461 51.1612 16.0706 51.0856 16.1461C49.5742 17.8087 48.2895 19.698 46.5514 21.1338C46.8536 21.8139 45.6445 22.0406 46.0224 22.7963C46.2491 23.0986 46.5514 23.1742 46.9292 22.9475C47.0048 22.6452 47.1559 22.3429 47.2315 22.0406C50.7833 21.9651 50.7833 21.9651 52.2947 23.4765C48.4406 23.4765 44.6621 23.4765 40.8836 23.4765C40.6569 23.2498 40.4302 23.0231 40.279 22.8719C40.279 18.111 40.279 13.5012 40.279 8.89139C40.5813 8.5891 40.7324 8.43796 40.9592 8.21125C44.2087 8.21125 47.4582 8.21125 50.7833 8.21125C51.9924 13.0478 53.655 17.8087 54.3351 22.9475ZM36.7272 23.4765C35.5181 23.4765 34.3845 23.4765 33.3265 23.4765C33.0243 23.1742 32.8731 23.0231 32.722 22.8719C32.722 18.1865 32.722 13.5012 32.722 8.89139C32.9487 8.66467 33.1754 8.43796 33.4021 8.21125C34.4601 8.21125 35.5937 8.21125 36.6516 8.21125C36.8784 8.43796 37.1051 8.66467 37.3318 8.89139C37.3318 13.5012 37.3318 18.1865 37.3318 22.8719C37.2562 22.9475 37.0295 23.1742 36.7272 23.4765ZM82.5985 17.5064C80.1046 18.2621 77.6108 19.0934 75.0414 19.8491C72.472 20.6048 69.9782 21.7384 66.6531 22.0406C68.6935 20.5292 70.2049 19.3957 71.7163 18.3377C71.8675 18.4888 72.0942 18.64 72.3209 18.8667C73.1521 18.4888 74.059 18.3377 74.8147 17.053C75.117 16.5996 73.6811 16.1461 74.1346 15.2393C76.8551 13.2745 79.5756 11.3096 82.4473 9.26924C82.9007 11.9898 84.79 14.5592 82.5985 17.5064Z" fill="#3B4672"/>
<path d="M23.1243 30.2778C21.9907 30.8824 21.235 29.5977 20.3282 29.9C19.7236 30.2778 19.4213 30.8824 19.1946 31.487C18.6656 31.4114 18.0611 31.7892 17.8343 31.0335C17.0031 31.3358 16.2474 31.5625 15.7939 32.3182C15.9451 32.4694 16.0207 32.5449 16.2474 32.7717C15.7939 33.9052 14.8115 33.6029 14.3581 33.6029C12.3177 34.1319 13.9802 36.3235 12.2421 36.7013C12.091 36.5502 12.0154 36.4746 11.8643 36.3235C11.033 36.6258 10.9574 37.2303 11.4864 38.5906C11.2597 39.7241 10.0506 40.0264 9.44602 40.7821C8.9926 41.8401 10.4284 42.4447 9.82388 43.5782C9.67274 43.6538 9.37045 43.7294 8.9926 43.8805C8.9926 44.4851 8.9926 45.0141 8.9926 45.6186C9.14374 45.9209 9.44602 45.8453 9.82388 45.8453C10.5796 47.0545 8.76589 48.188 9.67274 49.4727C10.0506 49.4727 10.4284 49.5483 11.033 49.6239C11.1086 50.4551 11.4109 51.2864 10.5796 51.9665C11.1086 52.4955 11.7887 52.949 11.8643 53.7802C12.0154 53.7047 12.091 53.5535 12.3177 53.4024C12.7711 53.3268 12.9978 53.7802 13.149 54.0825C13.3757 54.3848 13.149 55.0649 13.3757 55.2916C13.7535 55.6695 13.6024 56.1229 13.8291 56.3496C14.4337 56.6519 14.6604 56.2741 14.9627 55.9718C15.8695 56.2741 15.7939 57.1053 15.8695 57.861C16.6252 57.7099 17.1542 59.2969 18.061 58.1633C19.3457 58.4656 19.8747 60.1281 21.3106 60.2037C21.6884 60.0526 21.6129 59.5992 21.6884 59.3724C22.0663 58.9946 22.5197 59.2213 22.9731 59.1457C23.351 59.3724 23.1243 59.7503 23.351 60.0526C23.88 60.3549 24.5601 60.1281 25.3914 60.2037C25.6181 59.977 25.9959 59.5992 26.4494 59.1457C27.0539 59.1457 27.2806 59.9014 27.6585 60.1281C28.8676 59.9014 29.1699 58.4656 30.6813 58.3145C30.908 58.39 31.437 58.8435 32.1171 58.5412C32.8729 58.1633 32.8729 57.4832 32.8729 56.7275C33.2507 56.3496 33.9308 56.5763 34.1575 55.9718C34.5354 56.1229 34.3843 56.5763 34.5354 56.8786C34.6865 57.1053 34.9133 57.1053 34.9133 56.803C34.9133 55.9718 35.5934 55.6695 36.0468 55.1405C35.8957 54.9894 35.8201 54.9138 35.669 54.7626C35.4422 54.4604 35.8957 54.3848 35.9712 54.2337C36.0468 54.0069 36.1224 53.7802 36.198 53.478C36.8781 53.1757 38.0116 53.478 38.2384 52.42C38.3139 51.891 37.9361 51.7398 37.7849 51.4376C37.7094 49.9261 39.4475 49.4727 39.9009 47.9613C39.5231 47.7346 39.1452 47.4323 38.8429 47.2812C38.8429 46.2988 39.5986 46.0721 39.5986 46.0721C40.4299 44.2584 39.4475 43.5027 38.9185 42.8981C38.8429 41.8401 39.6742 42.3691 39.9009 41.9157C40.1276 40.4043 38.6162 40.102 37.8605 39.2707C37.6338 38.7417 38.1628 38.515 38.3895 38.1372C38.6162 37.457 37.5582 37.2303 37.7849 36.4746C37.1804 36.0968 36.1224 36.4746 35.8201 35.5678C35.9712 35.3411 36.1224 35.0388 36.2735 34.8121C36.1224 33.9808 35.5934 33.6029 34.8377 33.6785C34.082 33.7541 33.553 33.4518 33.0996 32.8472C33.2507 32.6961 33.4018 32.5449 33.553 32.3938C32.8728 32.016 32.1171 31.7892 31.7393 30.958C31.2859 31.4114 30.9836 31.7137 30.6813 32.016C29.6989 31.6381 29.9256 30.3534 28.9432 29.9756C27.8852 29.8244 26.9784 30.958 25.5425 30.3534C25.467 30.2778 25.5425 30.0511 25.5425 29.7488C24.938 29.2954 24.2578 29.5221 23.6533 29.5221C23.0487 29.6733 23.1998 29.9756 23.1243 30.2778ZM16.7764 46.9033C16.7764 45.6186 16.7764 43.9561 16.7764 42.3691C18.7412 39.1951 18.6656 39.1951 20.4793 38.1372C22.3686 37.0792 24.4845 37.0036 26.4494 37.3815C28.1119 37.6837 29.6989 38.8929 30.6813 40.4043C31.5126 41.6134 32.1927 42.8981 32.1927 44.5606C32.1172 48.5659 30.0767 51.362 26.2227 52.4955C24.4845 53.0245 22.822 52.6467 21.235 52.0421C19.0435 51.2108 17.7588 49.246 16.7764 46.9033Z" fill="#3B4672"/>
<path d="M82.7487 30.4289C82.6731 29.9755 82.5976 29.7488 82.522 29.5221C81.9174 29.2198 81.3129 29.3709 80.7083 29.3709C80.6327 29.6732 80.4816 29.9755 80.406 30.2778C80.0282 30.5045 79.5748 30.3534 79.1213 30.3534C79.0458 30.0511 78.8946 29.7488 78.7435 29.4465C77.1565 30.2778 77.1565 30.2778 76.5519 31.4869C76.023 31.4113 75.494 31.6381 75.1161 31.1091C74.3604 31.4113 73.6047 31.5625 73.1513 32.3182C73.3024 32.4693 73.378 32.5449 73.5291 32.696C73.2268 34.1319 71.791 33.3006 71.0353 33.754C70.204 34.283 70.5063 35.1899 70.4307 35.9456C70.1285 36.4746 69.5995 36.0967 69.2972 36.2479C68.3148 36.6257 68.2392 37.0791 68.7682 38.5905C68.5415 39.044 68.3148 39.4974 68.0881 39.9508C67.7102 39.9508 67.3323 39.9508 67.0301 39.9508C66.0477 41.1599 67.5591 42.2179 67.2568 43.5026C67.1812 43.8049 66.7278 43.6538 66.4255 43.7293C66.0477 44.2583 66.3499 44.9384 66.2744 45.4674C66.5011 45.8453 66.8789 45.6186 67.2568 45.9209C67.2568 46.072 67.4079 46.3743 67.3323 46.601C67.1812 47.5078 66.5011 48.2635 66.8789 49.3215C67.2568 49.6994 67.7102 49.3971 68.2392 49.5482C68.6926 50.4551 68.1636 51.5886 68.5415 52.6466C69.146 53.0245 69.7506 53.4023 70.4307 53.8558C70.4307 54.7626 70.8842 55.5939 71.262 56.3496C71.791 56.5763 72.0933 56.1984 72.3956 55.8962C73.0001 56.3496 73.4536 56.8786 73.2268 57.6343C73.4536 58.39 74.5871 57.5587 74.5115 58.4656C75.2672 58.6923 75.4184 57.7854 76.1741 58.0877C77.0054 58.6167 77.2321 60.2792 78.8191 60.1281C79.2725 59.9014 78.8191 59.2213 79.4992 59.0701C80.1793 58.9945 80.3305 59.7502 80.935 60.1281C81.3884 60.1281 81.9174 60.1281 82.522 60.1281C82.9754 59.9014 83.2021 59.1457 83.8823 59.0701C84.4868 59.1457 84.7135 59.6747 85.0914 59.977C86.3761 59.6747 86.8295 58.2388 88.1898 57.9366C88.6432 57.7854 88.7188 58.6167 89.2478 58.4656C89.7768 58.4656 90.079 57.9366 90.3058 56.5763C90.7592 56.3496 91.2126 56.1229 91.7416 55.8962C91.8927 56.0473 91.9683 56.1229 92.195 56.3496C92.5729 55.8962 92.9507 55.4427 93.4797 54.7626C93.4797 54.5359 93.5553 53.9313 93.5553 53.3268C94.3866 53.1756 95.2178 53.2512 95.6713 52.2688C95.8224 51.8154 95.2934 51.6642 95.0667 51.2864C95.1423 49.8505 96.6537 49.3971 97.1071 48.1124C96.956 47.659 96.2003 47.5078 96.1247 46.8277C96.2003 46.2231 96.7292 45.9964 97.1071 45.543C97.1071 45.014 97.1071 44.4095 97.1071 43.8805C96.956 43.5782 96.6537 43.7293 96.427 43.6537C95.8224 43.2759 96.3514 42.6713 96.0491 42.2935C96.5025 42.1423 96.8048 41.9912 97.1071 41.9156C97.2582 40.3287 95.6713 40.0264 95.0667 39.1951C94.84 38.5905 95.4445 38.4394 95.5957 37.986C95.369 37.5325 95.1423 37.0036 94.9156 36.399C94.6133 36.0967 94.0843 36.399 93.7064 36.2479C93.4797 36.0211 93.1774 35.7189 92.9507 35.4921C93.1019 35.1899 93.5553 35.1143 93.4797 34.6609C93.4797 34.1319 92.9507 33.9807 92.724 33.6029C92.1194 33.6029 91.5149 33.5273 91.137 33.5273C90.3058 32.9983 90.1546 32.3182 90.3058 31.7136C89.8523 31.3358 89.2478 31.5625 89.0966 31.0335C88.5676 31.1846 88.1142 31.6381 87.4341 31.4869C86.7539 31.2602 87.2074 30.0511 86.225 29.9755C85.696 29.8244 85.167 29.8999 84.638 30.3534C84.109 30.6556 83.4288 30.4289 82.7487 30.4289ZM74.0581 42.4446C76.1741 39.1195 76.1741 39.1195 79.1969 37.457C81.0862 37.457 82.8243 37.457 84.1846 37.457C86.8295 38.8928 88.5676 40.6309 89.4745 43.2003C89.7012 45.1652 89.6256 47.2811 88.4165 49.0193C87.7364 50.0772 86.8295 51.0597 85.7715 51.6642C84.5624 52.3444 83.2021 52.8733 81.7663 52.7978C79.4992 52.6466 77.6099 51.7398 75.9474 50.1528C73.6047 47.9613 74.2093 45.2407 74.0581 42.4446Z" fill="#3B4672"/>
<path d="M17.8338 47.13C19.7231 50.3796 22.2924 52.1177 25.3153 51.7398C28.4892 50.7574 30.1518 49.0949 31.1342 45.9965C31.5876 42.8981 29.7739 40.3287 26.6 38.515C21.0077 37.3815 16.9269 41.2355 17.8338 47.13Z" fill="#3B4672"/>
<path d="M75.1936 43.2004C75.1936 44.4095 75.1936 45.6942 75.1936 47.0545C76.0249 48.8682 77.4607 50.2284 79.1989 51.1353C82.1461 52.7222 86.7559 50.833 87.965 47.5835C89.1742 44.3339 87.965 40.7821 85.0178 39.044C84.5644 38.7417 83.9598 38.2883 83.1285 38.4394C81.995 38.5906 80.8614 38.515 80.2568 38.515C77.4607 39.1951 76.2516 40.9333 75.1936 43.2004Z" fill="#3B4672"/>
<path d="M39 31.5V27H56C56 27 56 43.5 48 43.5H44C44 43.5 43.5 39 42 36C40.5 33 40 33 39 31.5Z" fill="#DBFF00"/>
</svg>
