<svg width="19" height="19" viewBox="0 0 19 19" fill="none" xmlns="http://www.w3.org/2000/svg">
<path d="M17.7198 18.345C15.5983 18.345 13.5022 17.8825 11.4316 16.9575C9.36096 16.0325 7.47703 14.7214 5.7798 13.0242C4.08257 11.327 2.77146 9.44304 1.84647 7.37242C0.92148 5.3018 0.458984 3.20572 0.458984 1.08418C0.458984 0.778677 0.560818 0.524092 0.764486 0.320425C0.968154 0.116757 1.22274 0.0149231 1.52824 0.0149231H5.65251C5.89012 0.0149231 6.10228 0.0955416 6.28897 0.256778C6.47567 0.418015 6.58599 0.608954 6.61993 0.829594L7.28185 4.39378C7.3158 4.66534 7.30731 4.89446 7.25639 5.08116C7.20548 5.26785 7.11213 5.42909 6.97635 5.56487L4.50688 8.0598C4.84633 8.68777 5.24942 9.29453 5.71616 9.88008C6.1829 10.4656 6.69631 11.03 7.25639 11.5731C7.78254 12.0992 8.33413 12.5872 8.91119 13.0369C9.48825 13.4867 10.0993 13.8983 10.7442 14.2717L13.1373 11.8786C13.29 11.7258 13.4895 11.6113 13.7356 11.5349C13.9817 11.4585 14.2235 11.4373 14.4611 11.4712L17.9744 12.1841C18.212 12.252 18.4072 12.375 18.5599 12.5532C18.7127 12.7314 18.7891 12.9308 18.7891 13.1515V17.2758C18.7891 17.5813 18.6872 17.8358 18.4836 18.0395C18.2799 18.2432 18.0253 18.345 17.7198 18.345ZM3.53946 6.12495L5.21972 4.44469L4.78692 2.0516H2.52112C2.60598 2.74746 2.72479 3.43484 2.87754 4.11374C3.03029 4.79263 3.25093 5.46303 3.53946 6.12495ZM12.6536 15.2391C13.3155 15.5276 13.9902 15.7567 14.6775 15.9265C15.3649 16.0962 16.0565 16.2065 16.7524 16.2574V14.0171L14.3593 13.5334L12.6536 15.2391Z" fill="#3B4672"/>
</svg>
