<svg width="45" height="45" viewBox="0 0 45 45" fill="none" xmlns="http://www.w3.org/2000/svg">
<path d="M41.5 45L25.75 29.25C24.5 30.25 23.0625 31.0417 21.4375 31.625C19.8125 32.2083 18.0833 32.5 16.25 32.5C11.7083 32.5 7.86458 30.9271 4.71875 27.7812C1.57292 24.6354 0 20.7917 0 16.25C0 11.7083 1.57292 7.86458 4.71875 4.71875C7.86458 1.57292 11.7083 0 16.25 0C20.7917 0 24.6354 1.57292 27.7812 4.71875C30.9271 7.86458 32.5 11.7083 32.5 16.25C32.5 18.0833 32.2083 19.8125 31.625 21.4375C31.0417 23.0625 30.25 24.5 29.25 25.75L45 41.5L41.5 45ZM16.25 27.5C19.375 27.5 22.0312 26.4062 24.2188 24.2188C26.4062 22.0312 27.5 19.375 27.5 16.25C27.5 13.125 26.4062 10.4688 24.2188 8.28125C22.0312 6.09375 19.375 5 16.25 5C13.125 5 10.4688 6.09375 8.28125 8.28125C6.09375 10.4688 5 13.125 5 16.25C5 19.375 6.09375 22.0312 8.28125 24.2188C10.4688 26.4062 13.125 27.5 16.25 27.5Z" fill="#A9ADC1"/>
</svg>
