<svg width="250" height="44" viewBox="0 0 250 44" fill="none" xmlns="http://www.w3.org/2000/svg">
<path d="M31.9239 13.8381C34.1567 11.5739 36.403 9.32329 38.609 7.04551C39.3465 6.28398 40.1579 5.91682 41.1569 6.30438C42.203 6.71234 42.565 7.58946 42.5583 8.68416C42.5516 17.4281 42.5919 26.1721 42.5315 34.9161C42.498 39.4648 38.6894 43.1025 34.036 43.1637C31.126 43.2045 28.2159 43.1501 25.3125 43.1841C24.7359 43.1841 24.5482 43.0889 24.5549 42.4429C24.5817 35.7252 24.575 29.0142 24.5549 22.2965C24.5549 21.5621 24.7828 21.0522 25.2991 20.5422C27.532 18.3324 29.7246 16.0819 31.9306 13.8449L31.9239 13.8381Z" fill="#3B4672"/>
<path d="M28.8997 10.8464C26.6669 13.1105 24.4206 15.3611 22.2146 17.6457C21.7587 18.1217 21.3027 18.2916 20.6523 18.2916C14.0276 18.2713 7.40283 18.2713 0.778089 18.2916C0.100863 18.2916 -0.00642007 18.0877 0.000285135 17.4485C0.0338111 14.5316 0.000285135 11.6215 0.000285135 8.70456C0.0136955 3.90422 3.82225 0.00138762 8.53601 0.00138762C16.9108 -0.00541173 25.2789 0.0149863 33.6537 0.0149863C34.5388 0.0149863 35.4239 0.0149864 36.0273 0.837708C36.7716 1.84401 36.6844 2.93871 35.739 3.90422C33.466 6.2228 31.1795 8.53458 28.8997 10.8464Z" fill="#3B4672"/>
<path d="M18.5475 33.087C13.5186 33.0666 9.91117 29.293 9.91787 24.2003C9.91787 23.5611 9.91787 22.9152 9.91787 22.2761H0.396484C0.396484 26.1925 0.40319 30.1021 0.423305 34.0186C0.443421 38.9821 3.99718 42.6945 8.87857 42.7353C12.667 42.7693 16.4487 42.7761 20.2372 42.7829V33.0938C19.6739 33.0938 19.1107 33.0938 18.5475 33.0938V33.087Z" fill="#DBFF00"/>
<path d="M70.1392 21.5349H76.6567V43.1433H70.1392V40.9539C69.938 41.6678 69.2943 42.3342 68.2081 42.9597C67.1219 43.5852 65.7942 43.898 64.2252 43.898C61.3487 43.898 58.8946 42.8645 56.8562 40.7975C54.8178 38.7305 53.7785 36.004 53.745 32.6111C53.7115 29.2522 54.6837 26.4509 56.655 24.1935C58.6264 21.9429 61.0805 20.7938 64.0241 20.7598C65.526 20.7258 66.8134 20.9706 67.8863 21.4941C68.9591 22.0177 69.7101 22.6704 70.1459 23.4524V21.5213L70.1392 21.5349ZM61.9186 35.7932C62.8574 36.7587 63.957 37.2415 65.231 37.2415C66.505 37.2415 67.5979 36.7791 68.5165 35.8408C69.4352 34.9093 69.8978 33.835 69.8978 32.6111V32.2031C69.8978 30.8501 69.4486 29.7214 68.5434 28.8239C67.6382 27.9263 66.5385 27.4776 65.231 27.4776C63.9235 27.4776 62.8171 27.9467 61.8985 28.8782C60.9799 29.8098 60.5172 30.9521 60.5172 32.3119C60.5172 33.6718 60.9866 34.8277 61.9186 35.7932Z" fill="#3B4672"/>
<path d="M116.413 33.0734C116.413 35.3784 117.331 36.5275 119.169 36.5275H121.173V43.1365H117.11C114.971 43.1365 113.235 42.4837 111.893 41.1783C110.559 39.8728 109.889 38.1866 109.889 36.1195V28.1371H105.879V21.5281C107.783 21.5281 109.218 20.991 110.19 19.9235C111.156 18.856 111.847 17.1901 112.249 14.9124H118.766C118.364 17.6933 117.479 19.8963 116.111 21.5213H121.173V28.1303H116.413V33.0598V33.0734Z" fill="#3B4672"/>
<path d="M127.344 24.0983C129.55 21.8817 132.205 20.7666 135.316 20.7666C138.427 20.7666 141.083 21.8749 143.289 24.0983C145.495 26.3217 146.601 29.0414 146.601 32.2575C146.601 35.4736 145.495 38.2206 143.289 40.4915C141.083 42.7625 138.427 43.898 135.316 43.898C132.205 43.898 129.55 42.7625 127.344 40.4915C125.138 38.2206 124.031 35.4736 124.031 32.2575C124.031 29.0414 125.138 26.3149 127.344 24.0983ZM132.104 35.6368C132.976 36.5343 134.042 36.9831 135.316 36.9831C136.59 36.9831 137.656 36.5343 138.528 35.6368C139.4 34.7393 139.829 33.6106 139.829 32.2575C139.829 30.9044 139.393 29.8777 138.528 28.9802C137.656 28.0827 136.59 27.634 135.316 27.634C134.042 27.634 132.976 28.0827 132.104 28.9802C131.233 29.8777 130.803 30.9724 130.803 32.2575C130.803 33.6106 131.239 34.7393 132.104 35.6368Z" fill="#3B4672"/>
<path d="M180.842 33.0734C180.842 35.3784 181.761 36.5275 183.598 36.5275H185.603V43.1365H181.54C179.401 43.1365 177.664 42.4837 176.323 41.1783C174.989 39.8728 174.318 38.1866 174.318 36.1195V28.1371H170.309V21.5281C172.213 21.5281 173.648 20.991 174.62 19.9235C175.586 18.856 176.276 17.1901 176.679 14.9124H183.196C182.794 17.6933 181.909 19.8963 180.541 21.5213H185.603V28.1303H180.842V33.0598V33.0734Z" fill="#3B4672"/>
<path d="M204.854 21.5349H211.372V43.1433H204.854V40.9539C204.653 41.6678 204.009 42.3342 202.923 42.9597C201.837 43.5852 200.509 43.898 198.94 43.898C196.064 43.898 193.609 42.8645 191.571 40.7975C189.533 38.7305 188.493 36.004 188.46 32.6111C188.426 29.2522 189.399 26.4509 191.37 24.1935C193.341 21.9429 195.795 20.7938 198.739 20.7598C200.241 20.7258 201.528 20.9706 202.601 21.4941C203.674 22.0177 204.425 22.6704 204.861 23.4524V21.5213L204.854 21.5349ZM196.633 35.7932C197.572 36.7587 198.672 37.2415 199.946 37.2415C201.22 37.2415 202.313 36.7791 203.231 35.8408C204.15 34.9093 204.613 33.835 204.613 32.6111V32.2031C204.613 30.8501 204.163 29.7214 203.258 28.8239C202.353 27.9263 201.253 27.4776 199.946 27.4776C198.638 27.4776 197.532 27.9467 196.613 28.8782C195.695 29.8098 195.232 30.9521 195.232 32.3119C195.232 33.6718 195.701 34.8277 196.633 35.7932Z" fill="#3B4672"/>
<path d="M244.966 33.0734C244.966 35.3784 245.884 36.5275 247.721 36.5275H249.726V43.1365H245.663C243.524 43.1365 241.787 42.4837 240.446 41.1783C239.112 39.8728 238.441 38.1866 238.441 36.1195V28.1371H234.432V21.5281C236.336 21.5281 237.771 20.991 238.743 19.9235C239.709 18.856 240.399 17.1901 240.802 14.9124H247.319C246.917 17.6933 246.032 19.8963 244.664 21.5213H249.726V28.1303H244.966V33.0598V33.0734Z" fill="#3B4672"/>
<path d="M102.264 34.0321C102.264 40.8927 97.5904 44 91.8373 44C86.0843 44 81.3906 40.8927 81.3906 34.0118V21.4941H88.2903V33.4066C88.2903 36.2011 89.7654 37.4726 91.8373 37.4726C93.9092 37.4726 95.3844 36.2011 95.3844 33.4066V21.4941H102.257V34.0321H102.264Z" fill="#3B4672"/>
<path d="M165.495 28.0623C163.356 27.1444 160.573 26.3829 158.367 26.3625C156.557 26.3625 155.853 26.8996 155.853 27.7088C155.853 28.6471 157.22 28.8714 159.339 29.2114L160.928 29.4562C165.562 30.1701 168.016 32.4343 168.016 36.1264C168.016 40.9403 164.308 43.83 157.992 43.83C154.284 43.83 150.462 43.1569 147.994 41.525L150.401 36.106C152.567 37.4046 155.035 38.1662 158.039 38.1662C160.177 38.1662 161.063 37.6766 161.063 36.7315C161.063 35.8816 160.09 35.5416 157.643 35.1676L156.382 34.9909C151.172 34.2089 148.745 32.0127 148.745 28.0759C148.745 23.398 152.212 20.7326 158.106 20.7326C161.612 20.7326 163.865 21.2222 167.419 22.616L165.501 28.0759L165.495 28.0623Z" fill="#3B4672"/>
<path d="M229.927 21.4941H231.63V28.1031H230.228C227.955 28.1031 226.198 28.7287 224.965 29.9865C223.731 31.2444 223.107 33.393 223.107 36.4459V43.1093H216.59V21.5009H222.859V25.1114C224.428 22.7044 226.788 21.5009 229.927 21.5009V21.4941Z" fill="#3B4672"/>
</svg>
