<svg width="19" height="20" viewBox="0 0 19 20" fill="none" xmlns="http://www.w3.org/2000/svg">
<circle cx="9.5" cy="10" r="9.5" fill="#3B4672"/>
<path d="M13.3286 14.3846C12.2291 14.3846 11.1428 14.1449 10.0696 13.6655C8.99647 13.1861 8.02008 12.5066 7.14045 11.627C6.26082 10.7473 5.58131 9.77096 5.10191 8.69781C4.62251 7.62466 4.38281 6.53832 4.38281 5.43878C4.38281 5.28045 4.43559 5.1485 4.54115 5.04295C4.6467 4.93739 4.77865 4.88461 4.93698 4.88461H7.07448C7.19763 4.88461 7.30758 4.9264 7.40434 5.00996C7.5011 5.09353 7.55828 5.19248 7.57587 5.30684L7.91892 7.15406C7.93652 7.2948 7.93212 7.41355 7.90573 7.51031C7.87934 7.60707 7.83096 7.69063 7.76059 7.761L6.48073 9.05406C6.65666 9.37952 6.86557 9.69399 7.10747 9.99746C7.34936 10.3009 7.61545 10.5934 7.90573 10.8749C8.17841 11.1476 8.46429 11.4005 8.76337 11.6336C9.06244 11.8667 9.37911 12.08 9.71337 12.2735L10.9536 11.0332C11.0328 10.9541 11.1362 10.8947 11.2637 10.8551C11.3913 10.8155 11.5166 10.8045 11.6398 10.8221L13.4606 11.1916C13.5837 11.2267 13.6849 11.2905 13.7641 11.3829C13.8432 11.4752 13.8828 11.5786 13.8828 11.6929V13.8304C13.8828 13.9888 13.83 14.1207 13.7245 14.2263C13.6189 14.3318 13.487 14.3846 13.3286 14.3846ZM5.97934 8.05128L6.85017 7.18045L6.62587 5.94017H5.45156C5.49554 6.30082 5.55712 6.65707 5.63628 7.00892C5.71545 7.36077 5.8298 7.70822 5.97934 8.05128ZM10.703 12.7749C11.046 12.9244 11.3957 13.0432 11.7519 13.1311C12.1082 13.2191 12.4666 13.2763 12.8273 13.3027V12.1416L11.587 11.8909L10.703 12.7749Z" fill="white"/>
</svg>
