<svg width="64" height="59" viewBox="0 0 64 59" fill="none" xmlns="http://www.w3.org/2000/svg">
<g clip-path="url(#clip0_217_113)">
<path fill-rule="evenodd" clip-rule="evenodd" d="M19.1949 0.889502C32.9933 -2.8119 47.2239 5.41068 50.9207 19.1978C54.6125 33.0048 46.3991 47.2241 32.6057 50.9255C18.8123 54.617 4.58663 46.4093 0.889839 32.6073C-2.81192 18.8152 5.40151 4.58097 19.1949 0.889502ZM20.9737 7.52718C10.8424 10.2399 4.81022 20.6982 7.52319 30.8237C10.2411 40.964 20.6905 46.9956 30.8219 44.2829C40.9533 41.5652 46.9904 31.1168 44.2774 20.9764C41.5595 10.851 31.1101 4.80951 20.9737 7.52718ZM21.5302 24.4145C21.0831 24.5338 20.7849 24.9213 20.7551 25.3784C20.7452 25.602 20.8048 25.8156 20.9191 25.9945C21.2371 26.4714 21.8781 26.6304 22.37 26.3124C22.8569 25.9994 23.001 25.3535 22.688 24.8617C22.4395 24.4791 21.9725 24.3003 21.5352 24.4145H21.5302ZM23.9103 28.9307C23.4631 29.05 23.165 29.4375 23.1352 29.8946C23.1252 30.1182 23.1849 30.3318 23.2991 30.5057C23.6171 30.9876 24.2531 31.1466 24.75 30.8237C25.232 30.5107 25.3761 29.8648 25.068 29.3779C24.8196 28.9953 24.3525 28.8115 23.9153 28.9307H23.9103ZM29.1673 27.5247C28.7251 27.6439 28.422 28.0315 28.3922 28.4886C28.3673 29.0698 28.8145 29.5518 29.3909 29.5865C29.6145 29.5965 29.8281 29.5369 30.007 29.4226C30.494 29.1146 30.6331 28.4637 30.325 27.9718C30.0766 27.5893 29.6145 27.4055 29.1723 27.5247H29.1673ZM28.9735 22.4222C28.5313 22.5415 28.2232 22.929 28.1984 23.3861C28.1686 23.9674 28.6257 24.4493 29.1971 24.4841C29.7685 24.5089 30.2704 24.0568 30.2902 23.4854C30.325 22.775 29.6493 22.2434 28.9735 22.4272V22.4222ZM24.432 20.3604C23.9848 20.4796 23.6867 20.8671 23.6569 21.3242C23.6171 22.1688 24.5612 22.7154 25.2718 22.2583C25.7587 21.9502 25.8978 21.2944 25.5898 20.8075C25.3413 20.425 24.8743 20.2461 24.437 20.3604H24.432ZM25.4158 24.027C24.3724 24.3052 23.7463 25.3883 24.0296 26.4317C24.3078 27.48 25.391 28.101 26.4345 27.8228C27.4829 27.5396 28.104 26.4615 27.8257 25.4181C27.5425 24.3748 26.4643 23.7488 25.4208 24.032L25.4158 24.027ZM41.2216 21.1553C40.9284 20.261 40.367 19.471 39.6912 18.9146C39.3831 18.6612 38.926 18.691 38.5583 18.9543C36.6602 20.3306 34.9063 22.0744 33.0579 23.714C32.5709 24.1462 32.0194 24.499 31.756 24.9859C31.5474 25.3784 31.5225 25.8553 31.6914 26.2677C31.9001 26.7794 32.4169 27.1868 32.8541 27.6688C34.5187 29.4922 36.0839 31.4099 37.8279 32.9749C38.1658 33.278 38.613 33.3575 38.9509 33.1339C39.6813 32.652 40.3173 31.9217 40.7049 31.0621C42.0961 27.9867 42.2849 24.3549 41.2216 21.1553ZM26.4643 9.73312C25.5202 9.73809 24.596 10.0263 23.8556 10.4982C23.5178 10.7119 23.4085 11.159 23.5476 11.5913C24.2681 13.8221 25.386 16.023 26.3748 18.2935C26.6332 18.8897 26.7972 19.5257 27.1798 19.9232C27.4878 20.2461 27.935 20.415 28.3773 20.3802C28.9288 20.3405 29.4754 19.9778 30.0666 19.7095C32.3175 18.686 34.623 17.7967 36.6503 16.6192C37.0428 16.3907 37.2615 15.9882 37.1522 15.6007C36.9186 14.7561 36.4217 13.9214 35.7261 13.2904C33.2367 11.0199 29.8331 9.71822 26.4643 9.73312ZM17.3316 12.1825C14.4 13.8519 12.1144 16.6788 11.0858 19.8933C10.7976 20.7926 10.7877 21.7565 11.0063 22.611C11.1057 22.9986 11.4933 23.242 11.9504 23.242C14.2957 23.242 16.7354 22.8644 19.1949 22.6259C19.8409 22.5613 20.4967 22.6061 20.9936 22.3626C21.3961 22.1688 21.6942 21.7962 21.8035 21.364C21.9377 20.8274 21.7588 20.1914 21.6892 19.5505C21.411 17.0962 21.2768 14.6269 20.7849 12.3365C20.6905 11.8943 20.3725 11.5615 19.97 11.5466C19.0955 11.5068 18.1515 11.7205 17.3316 12.1875V12.1825ZM10.4697 26.7447C10.1616 27.5694 10.0672 28.6078 10.2709 29.4723C10.9566 32.7663 12.9342 35.8119 15.672 37.7743C16.4372 38.3258 17.3515 38.6339 18.226 38.6885C18.6285 38.7134 18.9763 38.4153 19.1204 37.988C19.8458 35.7622 20.2384 33.3178 20.775 30.9081C20.9141 30.2771 21.1576 29.6611 21.0781 29.1146C21.0185 28.6724 20.7601 28.2699 20.3775 28.0364C19.9054 27.7433 19.2496 27.7185 18.6136 27.5843C16.1938 27.0875 13.8038 26.4565 11.4734 26.2131C11.0212 26.1683 10.6088 26.3671 10.4697 26.7447ZM25.0581 41.8981C28.412 42.2707 31.92 41.3267 34.6379 39.3294C35.3982 38.773 35.9746 37.9979 36.2975 37.1782C36.4466 36.8055 36.2727 36.3783 35.905 36.1149C34.0119 34.7337 31.8107 33.6059 29.6791 32.3539C29.1226 32.026 28.6158 31.6087 28.0692 31.5093C27.6319 31.4298 27.1698 31.554 26.827 31.8422C26.4046 32.1999 26.1761 32.816 25.8531 33.3824C24.6357 35.5336 23.2942 37.6104 22.3451 39.7517C22.1613 40.1641 22.2259 40.6162 22.5389 40.8696C23.2246 41.4161 24.114 41.7987 25.0531 41.903L25.0581 41.8981Z" fill="#3B4672"/>
</g>
<circle cx="42.5287" cy="38.7219" r="16.6947" fill="white"/>
<path fill-rule="evenodd" clip-rule="evenodd" d="M37.5229 18.6976C48.4108 15.7757 59.6388 22.2684 62.5566 33.1417C65.4698 44.033 58.9899 55.2554 48.1065 58.1729C37.2231 61.0859 25.9995 54.6111 23.0818 43.7198C20.1595 32.8464 26.6439 21.6151 37.5229 18.6976ZM38.9281 23.9374C30.9356 26.0763 26.1741 34.3275 28.3176 42.3192C30.4612 50.3199 38.7043 55.0809 46.7013 52.9375C54.6983 50.7942 59.4598 42.5519 57.3162 34.5468C55.1727 26.5551 46.9251 21.7896 38.9281 23.9329V23.9374ZM39.4472 25.8794C38.8072 26.0494 38.1942 26.2687 37.6079 26.5237L41.3715 33.0388V25.517C40.7315 25.5886 40.0916 25.7094 39.4517 25.8794H39.4472ZM44.2624 25.517V33.0388L48.0215 26.5282C46.8356 26.0092 45.5691 25.6601 44.2624 25.5125V25.517ZM50.5275 27.978L46.7684 34.4886L53.2842 30.7299C52.501 29.6739 51.5702 28.7476 50.5275 27.9825V27.978ZM54.7296 33.2312L48.2139 36.9944H55.7365C55.6649 36.3545 55.5441 35.7147 55.374 35.0748C55.204 34.4349 54.9847 33.8219 54.7296 33.2357V33.2312ZM55.7365 39.885H48.2139L54.7207 43.6437C55.2398 42.4579 55.5844 41.1916 55.732 39.885H55.7365ZM53.2752 46.1495L46.7684 42.3908L50.5275 48.9059C51.5836 48.1228 52.51 47.1921 53.2752 46.1495ZM48.0215 50.3512L44.2579 43.8361V51.358C44.8978 51.2864 45.5378 51.1656 46.1777 50.9955C46.8177 50.8255 47.4307 50.6063 48.0215 50.3512ZM41.367 51.358V43.8361L37.6079 50.3467C38.7938 50.8658 40.0603 51.2103 41.367 51.3625V51.358ZM35.1019 48.8969L38.8609 42.3863L32.3452 46.145C33.1284 47.2011 34.0592 48.1273 35.1019 48.8925V48.8969ZM30.8998 43.6437L37.4155 39.885H29.8929C29.9645 40.5249 30.0853 41.1648 30.2553 41.8002C30.4254 42.44 30.6447 43.0531 30.8998 43.6437ZM29.8929 36.9899H37.4155L30.9042 33.2312C30.3851 34.417 30.0405 35.6833 29.8929 36.9899ZM32.3497 30.7254L38.8609 34.4841L35.0974 27.9691C34.0413 28.7521 33.1149 29.6828 32.3497 30.7254ZM42.3112 36.7751C41.3894 37.0213 40.8389 37.9743 41.0851 38.9006C41.3312 39.8268 42.2844 40.3728 43.2107 40.1267C44.1326 39.8805 44.683 38.9274 44.4369 38.0012C44.1908 37.0794 43.2376 36.529 42.3112 36.7751ZM42.5484 33.8353C42.1054 33.9516 41.8458 34.4081 41.9622 34.8511C42.0785 35.294 42.535 35.558 42.978 35.4372C43.4211 35.3164 43.6806 34.8645 43.5643 34.4215C43.4479 33.9785 42.9915 33.719 42.5484 33.8353ZM46.6521 35.9563C46.3299 35.6341 45.8018 35.6341 45.4796 35.9563C45.1574 36.2785 45.1574 36.8065 45.4796 37.1286C45.8018 37.4508 46.3299 37.4508 46.6521 37.1286C46.9743 36.8065 46.9743 36.2785 46.6521 35.9563ZM46.8669 40.5741C46.9832 40.1311 46.7237 39.6792 46.2806 39.5584C45.8376 39.4376 45.3856 39.7016 45.2648 40.1446C45.1484 40.5875 45.408 41.0395 45.851 41.1603C46.2941 41.2766 46.7461 41.0171 46.8669 40.5741ZM42.9736 43.0665C43.4166 42.9501 43.6761 42.4937 43.5598 42.0507C43.4434 41.6078 42.987 41.3482 42.5439 41.4646C42.1009 41.5809 41.8414 42.0373 41.9577 42.4803C42.0741 42.9233 42.5305 43.1828 42.9736 43.0665ZM38.8699 40.9455C39.1921 41.2677 39.7202 41.2677 40.0424 40.9455C40.3646 40.6233 40.3646 40.0953 40.0424 39.7732C39.7202 39.451 39.1921 39.451 38.8699 39.7732C38.5477 40.0953 38.5477 40.6233 38.8699 40.9455ZM38.6551 36.3277C38.5387 36.7707 38.7983 37.2226 39.2413 37.3434C39.6844 37.4642 40.1363 37.2002 40.2572 36.7572C40.3735 36.3143 40.114 35.8623 39.6709 35.7415C39.2279 35.6252 38.7759 35.8847 38.6551 36.3277Z" fill="#3B4672"/>
<defs>
<clipPath id="clip0_217_113">
<rect width="51.8047" height="51.8047" fill="white"/>
</clipPath>
</defs>
</svg>
