<svg width="104" height="48" viewBox="0 0 104 48" fill="none" xmlns="http://www.w3.org/2000/svg">
<line x1="1" y1="47.5" x2="104" y2="47.5" stroke="#3B4672"/>
<path d="M61.4042 30.2458L74.3762 3.10001H85.6611L86.2023 2.22459L67.5639 0.020143C66.7681 -0.0753569 65.9722 0.171339 65.3674 0.704547L56.3666 8.60716H6.94531C6.59515 8.60716 6.27684 8.80613 6.12563 9.1165L0.093208 21.5394C-0.145542 22.0249 0.0932119 22.6059 0.594586 22.7889L20.8804 30.2379H61.4042V30.2458Z" fill="#3B4672"/>
<path d="M35.4913 32.8005C31.6316 32.8005 28.5039 35.9281 28.5039 39.7879C28.5039 43.6477 31.6316 46.7753 35.4913 46.7753C39.3511 46.7753 42.4787 43.6477 42.4787 39.7879C42.4787 35.9281 39.3511 32.8005 35.4913 32.8005ZM35.4913 42.8678C33.7962 42.8678 32.4194 41.491 32.4194 39.7958C32.4194 38.1007 33.7962 36.7239 35.4913 36.7239C37.1865 36.7239 38.5632 38.1007 38.5632 39.7958C38.5632 41.491 37.1865 42.8678 35.4913 42.8678Z" fill="#3B4672"/>
<path d="M80.3761 32.8005C76.5163 32.8005 73.3887 35.9281 73.3887 39.7879C73.3887 43.6477 76.5163 46.7753 80.3761 46.7753C84.2358 46.7753 87.3635 43.6477 87.3635 39.7879C87.3635 35.9281 84.2358 32.8005 80.3761 32.8005ZM80.3761 42.8678C78.6809 42.8678 77.3042 41.491 77.3042 39.7958C77.3042 38.1007 78.6809 36.7239 80.3761 36.7239C82.0712 36.7239 83.448 38.1007 83.448 39.7958C83.448 41.491 82.0712 42.8678 80.3761 42.8678Z" fill="#3B4672"/>
<path d="M18.7413 32.8005C14.8815 32.8005 11.7539 35.9281 11.7539 39.7879C11.7539 43.6477 14.8815 46.7753 18.7413 46.7753C22.6011 46.7753 25.7287 43.6477 25.7287 39.7879C25.7287 35.9281 22.6011 32.8005 18.7413 32.8005ZM18.7413 42.8678C17.0462 42.8678 15.6694 41.491 15.6694 39.7958C15.6694 38.1007 17.0462 36.7239 18.7413 36.7239C20.4364 36.7239 21.8132 38.1007 21.8132 39.7958C21.8132 41.491 20.4364 42.8678 18.7413 42.8678Z" fill="#3B4672"/>
<path d="M74.4082 31.2566C74.44 31.2247 6.44413 31.36 6.44413 31.36C6.44413 31.36 6.29288 32.3628 6.7465 32.5378C7.15238 32.689 8.951 33.2939 9.82642 33.5883C10.1448 33.6918 10.479 33.7475 10.8132 33.7475H11.6011C10.5586 35.1402 9.22955 37.6312 9.22955 41.2761H10.1845C10.1845 37.3288 11.9035 34.8219 12.8426 33.7475H14.4422C15.6599 32.8801 17.1401 32.3628 18.7477 32.3628C20.8566 32.3628 22.7507 33.2461 24.1036 34.6548H30.0087C31.3616 33.2461 33.2557 32.3628 35.3647 32.3628C37.4736 32.3628 39.3677 33.2461 40.7206 34.6548H42.2804C43.1877 35.9838 44.2382 38.1883 44.2382 41.2761H45.1932C45.1932 38.3235 44.3178 36.127 43.4264 34.6548H44.7953C45.1454 34.6548 45.424 34.3762 45.424 34.026V33.0074H72.3311L74.4082 31.2566Z" fill="#3B4672"/>
<path d="M80.3772 38.1803C79.4859 38.1803 78.7617 38.9045 78.7617 39.7958C78.7617 40.6872 79.4859 41.4114 80.3772 41.4114C81.2686 41.4114 81.9928 40.6872 81.9928 39.7958C81.9928 38.8965 81.2686 38.1803 80.3772 38.1803Z" fill="#3B4672"/>
<path d="M35.4925 38.1803C34.6012 38.1803 33.877 38.9045 33.877 39.7958C33.877 40.6872 34.6012 41.4114 35.4925 41.4114C36.3838 41.4114 37.108 40.6872 37.108 39.7958C37.108 38.8965 36.3838 38.1803 35.4925 38.1803Z" fill="#3B4672"/>
<path d="M18.7386 38.1803C17.8472 38.1803 17.123 38.9045 17.123 39.7958C17.123 40.6872 17.8472 41.4114 18.7386 41.4114C19.6299 41.4114 20.3541 40.6872 20.3541 39.7958C20.3541 38.8965 19.6299 38.1803 18.7386 38.1803Z" fill="#3B4672"/>
<path d="M12.6203 29.3784C12.8829 30.2618 13.4639 30.4846 13.9334 30.4846C14.4029 30.4846 18.2309 30.4846 18.6367 30.4846C19.0426 30.4846 19.0745 30.214 19.0745 30.214L12.7237 27.7947C11.8801 27.7947 12.3576 28.503 12.6203 29.3784Z" fill="#3B4672"/>
<path d="M70.8828 26.983C70.8828 28.9089 71.3285 30.6119 71.3285 30.6119H75.1803V23.7121H71.3285C71.3285 23.7121 70.8828 25.0491 70.8828 26.983Z" fill="#3B4672"/>
<path d="M45.8379 41.3954C45.8379 42.3186 46.5859 43.0587 47.5012 43.0587H63.4815C64.4047 43.0587 65.1447 42.3107 65.1447 41.3954V33.3814H45.8379V41.3954Z" fill="#3B4672"/>
<path d="M65.3652 41.1647C65.3652 41.5228 65.6517 41.8093 66.0099 41.8093H68.8828C69.2409 41.8093 69.5274 41.5228 69.5274 41.1647V33.3894H65.3652V41.1647Z" fill="#3B4672"/>
<path d="M98.259 31.3759H95.768V32.2673H95.7601V39.4059C95.7601 39.8595 95.577 40.2893 95.2587 40.6076C94.9404 40.9259 94.5106 41.109 94.057 41.109H91.3034C91.3034 41.109 91.3034 37.5596 91.2477 37.5118H94.9642L95.004 31.6784L95.5292 31.4078V24.3487C95.5292 20.5924 93.9694 17.9821 93.9535 17.9582L94.1525 17.8309C94.1684 17.8548 95.7601 20.5208 95.7601 24.3408V31.1451H98.251C98.2431 29.2033 98.2112 27.739 98.2033 27.4366C98.0759 23.2823 97.861 19.1679 95.9351 15.324C94.9244 12.9206 94.0809 10.8673 93.1736 8.63103C93.0622 8.35249 92.9587 8.06601 93.0542 7.77951C93.2452 7.54076 93.5158 7.65217 93.7466 7.47709C93.8421 6.64147 93.1816 6.06847 92.537 5.69443C92.4096 5.61485 92.2982 5.55913 92.1868 5.51138H75.8722V25.6459C75.8722 26.8158 76.2224 27.9618 76.875 28.9407C77.1853 29.4023 77.4479 29.7922 77.7902 30.2299C76.6442 30.3175 74.384 31.2009 72.9913 33.3814H69.7363V41.9923C69.7363 42.5813 70.2138 43.0588 70.8028 43.0588H71.8134H72.7684V37.7028C72.7684 32.7368 76.8351 31.169 77.9811 31.169H83.0904C86.3852 31.169 89.1069 36.5886 89.1069 37.5436V42.5494H89.2342H90.054H96.3172C96.9459 42.5494 97.4791 42.1117 97.6144 41.5069C97.877 40.2972 98.1396 38.6976 98.1794 37.0104C98.259 35.0925 98.2669 33.0711 98.259 31.3759ZM80.2731 18.197H80.0344V7.35772H80.2731V18.197ZM83.8464 26.8874H81.8967V26.0837H83.8464V26.8874ZM88.9716 17.035C85.8281 16.5257 81.9046 15.8015 81.9046 15.8015V7.48506C81.9046 7.48506 86.226 7.44525 88.9716 7.46912V17.035ZM89.2581 17.0748V7.46912C89.465 7.46912 89.672 7.47709 89.855 7.47709C90.4439 7.48505 90.8577 7.96255 91.0965 8.5435C92.0992 10.9628 92.8632 13.4538 93.3248 16.0243C93.4203 16.5655 93.468 17.425 92.7518 17.5046C92.4016 17.5523 90.9692 17.3534 89.2581 17.0748Z" fill="#3B4672"/>
<path d="M75.8887 4.2778V5.27259H91.495C91.2722 5.21688 91.0016 5.14526 90.6355 5.02588C90.15 4.88263 89.2984 4.69165 88.5185 4.5484C84.5314 3.93561 81.2128 3.77643 77.1938 3.6093C76.6766 3.58543 75.9523 3.7048 75.8887 4.2778Z" fill="#3B4672"/>
<path d="M7.88154 11.4324H67.2427L59.3878 27.8902H21.4505L3.1543 21.1813L7.88154 11.4324Z" fill="#DBFF00"/>
<path d="M21.9454 12.1089L15.8413 24.8979L13.3583 23.9906L19.0326 12.1089H21.9454ZM14.194 12.1089L9.24386 22.4786L11.7269 23.3858L17.1147 12.1009L14.194 12.1089ZM9.45079 12.1089L5.20898 20.9983L7.69198 21.9056L12.3715 12.1009L9.45079 12.1089ZM23.7837 12.1089L17.4011 25.4709L19.8841 26.3781L26.6965 12.1009L23.7837 12.1089ZM47.9691 12.1089L40.8305 27.0705H43.7432L50.8898 12.1089H47.9691ZM57.5589 12.1089L50.4202 27.0705H53.333L60.4796 12.1089H57.5589ZM31.8057 12.1089H28.893L21.7544 27.0705H21.7623H24.6671L31.8057 12.1089ZM55.1634 27.0705H58.0761L65.2227 12.1089H62.31L55.1634 27.0705ZM52.7202 12.1089L45.5816 27.0705H48.4943L55.6409 12.1089H52.7202ZM43.2259 12.1089L36.0873 27.0705H39.0001L46.1466 12.1089H43.2259ZM33.6361 12.1089L26.4975 27.0705H29.4103L36.5568 12.1089H33.6361ZM38.4748 12.1089L31.3362 27.0705H34.2489L41.3955 12.1089H38.4748Z" fill="#3B4672"/>
</svg>
