<svg width="46" height="60" viewBox="0 0 46 60" fill="none" xmlns="http://www.w3.org/2000/svg">
<path d="M10.6523 1.18858C10.6523 0.528256 11.1806 0 11.8409 0H19.3245C19.9849 0 20.5131 0.528256 20.5131 1.18858V3.78584H10.6523V1.18858Z" fill="#3B4672"/>
<path d="M0 16.552V55.3789C0 56.9196 1.2326 58.1522 2.77334 58.1522H12.0618C12.5461 58.1522 13.0743 57.9761 13.4705 57.712L14.0428 57.2718C14.9673 56.6115 16.2439 56.6115 17.1683 57.2718L17.7406 57.712C18.1368 58.0202 18.621 58.1522 19.1493 58.1522H25.3563C26.897 58.1522 28.1296 56.9196 28.1296 55.3789V16.6841C28.1296 15.8477 27.7334 15.0553 27.0731 14.5271L21.5264 7.79179C20.9101 7.30756 20.558 6.51518 20.558 5.72279V5.3266H10.6532V5.59073C10.6532 6.38311 10.301 7.13147 9.64067 7.65973L1.05651 14.351C0.396193 14.8792 0 15.6716 0 16.552ZM5.28256 19.1053C5.28256 18.3129 5.63473 17.5645 6.29505 17.1243C7.57167 16.1999 9.77274 14.6591 10.9173 14.1309C12.6341 13.3385 13.1624 16.8162 12.9423 20.3819C12.6341 26.4128 9.0684 29.2742 6.91135 30.4628C6.16299 30.859 5.28256 30.3307 5.28256 29.4943V19.1053Z" fill="#3B4672"/>
<path d="M39.2549 56.4765H39.0788V29.4474H39.2549C39.8712 29.4474 40.3994 28.9632 40.3994 28.3029C40.3994 27.6866 39.9152 27.1583 39.2549 27.1583H23.4512C22.8349 27.1583 22.3066 27.6426 22.3066 28.3029C22.3066 28.9192 22.7909 29.4474 23.4512 29.4474H23.6273V56.4765H23.4512C22.8349 56.4765 22.3066 56.9608 22.3066 57.6211C22.3066 58.2374 22.7909 58.7656 23.4512 58.7656H39.2549C39.8712 58.7656 40.3994 58.2814 40.3994 57.6211C40.3994 56.9608 39.8712 56.4765 39.2549 56.4765Z" fill="#3B4672" stroke="white" stroke-miterlimit="10"/>
<path d="M31.3761 21.8317C28.1625 21.8317 25.3892 23.6365 23.9805 26.2338H38.8157C37.363 23.5925 34.5456 21.8317 31.3761 21.8317Z" fill="#3B4672" stroke="white" stroke-miterlimit="10"/>
<path d="M33.1369 16.5051H29.6152V20.6431H33.1369V16.5051Z" fill="#3B4672" stroke="white" stroke-miterlimit="10"/>
<path d="M36.4366 30.5919H34.6758V55.552H36.4366V30.5919Z" fill="white"/>
<path d="M36.3948 18.9264C36.8082 18.9264 37.1432 18.5913 37.1432 18.178C37.1432 17.7647 36.8082 17.4296 36.3948 17.4296C35.9815 17.4296 35.6465 17.7647 35.6465 18.178C35.6465 18.5913 35.9815 18.9264 36.3948 18.9264Z" fill="#3B4672"/>
<path d="M44.3616 23.3725C44.775 23.3725 45.11 23.0374 45.11 22.6241C45.11 22.2108 44.775 21.8757 44.3616 21.8757C43.9483 21.8757 43.6133 22.2108 43.6133 22.6241C43.6133 23.0374 43.9483 23.3725 44.3616 23.3725Z" fill="#3B4672"/>
<path d="M40.444 16.7692C40.9545 16.7692 41.3684 16.3554 41.3684 15.8448C41.3684 15.3342 40.9545 14.9203 40.444 14.9203C39.9334 14.9203 39.5195 15.3342 39.5195 15.8448C39.5195 16.3554 39.9334 16.7692 40.444 16.7692Z" fill="#3B4672"/>
<path d="M40.4444 21.6117C41.1009 21.6117 41.633 21.0795 41.633 20.4231C41.633 19.7666 41.1009 19.2345 40.4444 19.2345C39.788 19.2345 39.2559 19.7666 39.2559 20.4231C39.2559 21.0795 39.788 21.6117 40.4444 21.6117Z" fill="#3B4672"/>
<path d="M44.3624 19.1464C45.0188 19.1464 45.551 18.6142 45.551 17.9578C45.551 17.3014 45.0188 16.7692 44.3624 16.7692C43.706 16.7692 43.1738 17.3014 43.1738 17.9578C43.1738 18.6142 43.706 19.1464 44.3624 19.1464Z" fill="#3B4672"/>
<path d="M44.36 15.0084C45.1866 15.0084 45.8567 14.3383 45.8567 13.5117C45.8567 12.6851 45.1866 12.015 44.36 12.015C43.5334 12.015 42.8633 12.6851 42.8633 13.5117C42.8633 14.3383 43.5334 15.0084 44.36 15.0084Z" fill="#3B4672"/>
</svg>
