<svg width="60" height="55" viewBox="0 0 60 55" fill="none" xmlns="http://www.w3.org/2000/svg">
<g clip-path="url(#clip0_217_71)">
<path fill-rule="evenodd" clip-rule="evenodd" d="M31.3584 0.612122C37.3208 0.612122 42.9768 1.31004 47.5757 2.49453C52.5452 3.77731 56.5069 5.54668 58.3988 8.17614C60.2957 10.8056 59.041 13.9315 54.6248 16.3349C49.69 19.0233 41.3417 20.8467 31.3535 20.8467C21.3653 20.8467 12.9973 19.0233 8.06241 16.3349C3.65613 13.9315 2.42118 10.8007 4.31312 8.17123C6.20999 5.54667 10.1569 3.77731 15.1263 2.49453C19.7252 1.31004 25.3961 0.612122 31.3584 0.612122ZM31.3584 3.09414C27.3473 3.09414 23.5882 3.59546 20.6589 4.43591C17.5715 5.32059 15.2893 6.54931 14.5632 8.17614C13.8321 9.80297 15.0967 11.5527 17.9914 12.8551C21.0787 14.246 25.8555 15.1504 31.3584 15.1504C36.8614 15.1504 41.6134 14.246 44.7008 12.8551C47.5955 11.5527 48.865 9.80297 48.1389 8.17614C47.4127 6.54931 45.1256 5.32059 42.0382 4.43591C39.109 3.59546 35.3695 3.09414 31.3584 3.09414ZM6.68421 17.1016C5.89385 16.5954 5.20228 16.0744 4.53541 15.4158V23.1371C4.91083 24.2577 5.77035 25.1374 6.68421 25.8599V17.1016ZM58.1765 15.406C57.5096 16.0645 56.8181 16.5855 56.0277 17.0918V25.8501C56.9366 25.1374 57.7962 24.2429 58.1765 23.1273V15.406ZM53.8838 18.2566C53.1824 18.5859 52.4661 18.8906 51.735 19.1609V28.1896C52.4661 27.8898 53.1824 27.5752 53.8838 27.2066V18.2566ZM49.5912 19.8834C48.8798 20.0997 48.1636 20.2963 47.4424 20.4781V29.5805C48.1537 29.3987 48.8897 29.1824 49.5912 28.9563V19.8834ZM45.2985 20.9647C44.5872 21.1121 43.8709 21.2399 43.1497 21.3628V30.4996C43.866 30.3816 44.5872 30.2342 45.2985 30.0867V20.9647ZM41.0058 21.6774C40.2896 21.7658 39.5782 21.8494 38.857 21.9231V31.0746C39.5733 31.0009 40.2896 30.9223 41.0058 30.824V21.6774ZM36.7132 22.1C35.9969 22.1443 35.2856 22.1836 34.5644 22.2131V31.3744C35.2806 31.345 35.9969 31.3056 36.7132 31.2565V22.0951V22.1ZM32.4205 22.2721C31.7092 22.2868 30.988 22.2868 30.2717 22.2721V31.4334C30.983 31.4482 31.7042 31.4482 32.4205 31.4334V22.2721ZM28.1278 22.2131C27.4115 22.1836 26.6953 22.1443 25.979 22.1V31.2614C26.6953 31.3056 27.4066 31.3499 28.1278 31.3794V22.218V22.2131ZM23.8351 21.9231C23.1189 21.8494 22.4026 21.7707 21.6863 21.6774V30.824C22.3977 30.9223 23.1189 31.0009 23.8351 31.0746V21.9231ZM19.5425 21.3628C18.8262 21.2448 18.105 21.1171 17.3937 20.9696V30.0917C18.105 30.2391 18.8213 30.3816 19.5425 30.4996V21.3628ZM15.2498 20.483C14.5286 20.3012 13.8123 20.1095 13.101 19.8883V28.9612C13.8024 29.1873 14.5335 29.4036 15.2498 29.5854V20.483ZM10.9571 19.1658C10.231 18.9004 9.50977 18.5908 8.80832 18.2664V27.2164C9.48507 27.5752 10.2458 27.9193 10.9571 28.1994V19.1708V19.1658ZM59.2386 23.373C59.2386 24.4297 59.2485 25.2456 58.7298 26.204C57.5689 28.3665 55.3016 29.6591 53.133 30.6716C46.3951 33.6353 38.5755 34.4118 31.3387 34.4512C25.6974 34.4217 20.3575 33.9204 14.9485 32.5491C11.5252 31.6202 7.66229 30.3276 5.07384 27.7669C4.21926 26.8478 3.67589 26.0025 3.49311 24.8868C3.41408 24.3855 3.43384 23.894 3.43384 23.3877L3.53757 23.3582C3.8883 24.6656 4.56999 25.5306 5.60734 26.4792C8.23037 28.7007 11.6981 29.8754 14.9485 30.7552C20.3526 32.1313 25.6925 32.6277 31.3387 32.6572C38.5705 32.6179 46.4248 31.8266 53.133 28.8777C55.2028 27.9094 57.1095 26.8183 58.4235 24.9408C58.7545 24.415 58.9669 23.9579 59.1299 23.3582L59.2336 23.373H59.2386ZM26.4335 14.3492C28.0685 14.1772 29.7085 14.0937 31.3584 14.0888C33.0083 14.0937 34.6483 14.1772 36.2785 14.3492C37.5183 14.2165 38.7681 14.0298 39.9833 13.7693C37.1528 13.1795 34.263 12.9436 31.3634 12.9338C28.4489 12.9436 25.5641 13.1795 22.7237 13.7693C23.9389 14.0298 25.1936 14.2165 26.4384 14.3492H26.4335ZM19.5573 13.0861V5.72853C18.8262 5.99393 18.0852 6.30357 17.4085 6.69184V12.1621C18.0902 12.5307 18.8213 12.8305 19.5573 13.0861ZM21.7012 13.0861C22.4125 12.919 23.1288 12.7765 23.85 12.6536V4.61776C23.1337 4.74063 22.4075 4.89791 21.7012 5.07976V13.0812V13.0861ZM25.9938 12.3538C26.7052 12.2702 27.4214 12.2064 28.1426 12.1621V4.09187C27.4313 4.1361 26.7052 4.20982 25.9938 4.29829V12.3489V12.3538ZM30.2865 12.0638C31.0028 12.0491 31.7141 12.0491 32.4353 12.0638V3.99357C31.719 3.97882 31.0077 3.97882 30.2865 3.99357V12.0589V12.0638ZM34.5792 12.1572C35.2954 12.2064 36.0117 12.2702 36.728 12.3538V4.29829C36.0166 4.20982 35.2954 4.14102 34.5792 4.09187V12.1523V12.1572ZM38.8718 12.6536C39.5931 12.7765 40.3093 12.919 41.0207 13.0861V5.08468C40.3143 4.90282 39.6029 4.75538 38.8867 4.62267H38.8718V12.6536ZM45.3084 12.1523V6.70167C44.6366 6.3134 43.8907 6.00376 43.1596 5.73836V13.0812C43.8907 12.8207 44.6218 12.5209 45.3084 12.1523Z" fill="#3B4672"/>
</g>
<g clip-path="url(#clip1_217_71)">
<ellipse cx="15.4668" cy="28.3817" rx="14.0605" ry="7.38179" fill="white"/>
<path fill-rule="evenodd" clip-rule="evenodd" d="M30.9341 28.1763V30.8495C30.9044 31.9876 30.5328 32.995 29.8393 33.8667V45.572C29.8393 56.8462 1.10072 56.8753 1.10072 45.572V33.8667C0.397238 32.9901 0.0355911 31.9925 0.00586668 30.8495V28.1763C0.000912611 25.3819 2.51758 23.4254 4.99957 22.2921C8.14044 20.8587 11.9898 20.2969 15.4675 20.2969C18.9453 20.2969 22.7896 20.8587 25.9354 22.2921C28.4125 23.4205 30.9341 25.3819 30.9341 28.1763ZM15.4675 25.8759C12.6784 25.8759 10.4193 26.9074 10.4193 28.1763C10.4193 29.4451 12.6784 30.4766 15.4675 30.4766C18.2566 30.4766 20.5157 29.4451 20.5157 28.1763C20.5157 26.9074 18.2566 25.8759 15.4675 25.8759ZM15.4675 23.0186C14.3429 23.0186 13.4363 23.4351 13.4363 23.9436C13.4363 24.4521 14.3479 24.8686 15.4675 24.8686C16.5871 24.8686 17.4987 24.4521 17.4987 23.9436C17.4987 23.4351 16.5871 23.0186 15.4675 23.0186ZM25.2716 25.5998C24.7118 25.1591 23.4683 25.0042 22.4924 25.2608C21.5214 25.5175 21.1845 26.0841 21.7493 26.5248C22.3091 26.9704 23.5525 27.1205 24.5285 26.8638C25.4995 26.6072 25.8364 26.0406 25.2716 25.5998ZM25.2716 30.7575C25.8314 30.3168 25.4995 29.7502 24.5285 29.4935C23.5575 29.2369 22.314 29.3918 21.7493 29.8325C21.1895 30.2781 21.5214 30.8447 22.4924 31.0965C23.4634 31.3532 24.7068 31.1982 25.2716 30.7575ZM15.4675 33.3388C16.5921 33.3388 17.5036 32.9223 17.4987 32.4138C17.4987 31.9005 16.5871 31.4888 15.4675 31.4888C14.3479 31.4888 13.4363 31.9053 13.4363 32.4138C13.4363 32.9271 14.3479 33.3388 15.4675 33.3388ZM5.66341 30.7575C6.22322 31.2031 7.46669 31.3532 8.44264 31.0965C9.41364 30.8399 9.75051 30.2732 9.18575 29.8325C8.62594 29.387 7.38247 29.2369 6.40652 29.4935C5.43552 29.7502 5.1036 30.3168 5.66341 30.7575ZM5.66341 25.5998C5.1036 26.0454 5.43552 26.6072 6.40652 26.8638C7.37752 27.1205 8.62099 26.9655 9.18575 26.5248C9.74556 26.0793 9.41364 25.5127 8.44264 25.2608C7.47164 25.0042 6.22817 25.1591 5.66341 25.5998ZM15.4675 21.9241C7.89274 21.9241 1.75465 24.7233 1.75465 28.1763C1.75465 31.6293 7.89274 34.4284 15.4675 34.4284C23.0423 34.4284 29.1804 31.6293 29.1804 28.1763C29.1804 24.7233 23.0423 21.9241 15.4675 21.9241Z" fill="#3B4672"/>
</g>
<defs>
<clipPath id="clip0_217_71">
<rect width="55.8047" height="33.839" fill="white" transform="translate(3.45312 0.612122)"/>
</clipPath>
<clipPath id="clip1_217_71">
<rect width="30.9332" height="33.7453" fill="white" transform="translate(0 20.2969)"/>
</clipPath>
</defs>
</svg>
