<svg width="105" height="32" viewBox="0 0 105 32" fill="none" xmlns="http://www.w3.org/2000/svg">
<line y1="31.5" x2="105" y2="31.5" stroke="#3B4672"/>
<path d="M16.5036 25.5148C17.1908 25.4352 18.1601 25.8041 18.8907 25.3339C19.672 24.8348 19.3609 23.8004 19.5345 23.0047C20.4098 18.9684 23.8023 16.5451 28.222 16.8417C31.629 17.0732 34.7178 20.3862 34.9927 24.097C35.0867 25.4063 35.1952 25.5148 36.5045 25.5148C47.6948 25.5148 58.8923 25.5148 70.0826 25.5148C71.5221 25.5148 71.7102 25.3484 71.8621 23.8944C72.4191 18.4114 78.5098 14.8236 83.6745 17.9051C85.9025 19.236 87.1322 21.2614 87.4288 23.8366C87.5951 25.3267 87.7542 25.4931 89.2588 25.5003C89.6639 25.5075 90.069 25.5075 90.4741 25.5003C91.8195 25.4931 92.4416 25.0663 92.8322 23.7932C93.4398 21.8257 93.0564 19.8364 92.8756 17.8544C91.8484 17.0226 92.145 15.7061 91.6893 14.6644C91.1395 13.4203 90.3005 12.5739 88.955 12.2339C85.4974 11.3659 81.9891 10.8162 78.4591 10.3822C76.535 10.1434 74.6109 9.94814 72.6868 9.77453C71.3847 9.65156 70.3792 8.89203 69.3086 8.27718C66.4586 6.62793 63.8039 4.6604 60.8382 3.19199C58.3498 1.95505 55.7095 1.45593 52.9897 1.17382C48.7581 0.73257 44.4975 0.710879 40.2514 0.75428C35.5424 0.797681 30.8189 0.587913 26.1243 1.1666C25.2346 1.2751 24.3448 1.40529 23.5058 1.73803C23.0428 1.91887 22.7824 2.20823 22.956 2.74351C23.1368 3.29326 22.9054 3.65495 22.4641 3.99492C20.2796 5.70204 18.1384 7.47426 15.9394 9.15968C14.7097 10.1 13.9574 11.1778 13.9719 12.7982C13.9864 13.9483 13.7549 15.0984 13.6898 16.2486C13.6536 16.8055 13.4873 17.1817 12.9086 17.3264C12.3588 17.4638 12.0912 17.8617 12.0912 18.4114C12.0839 20.1764 11.9827 21.9414 12.3878 23.6774C12.7133 25.0446 13.2051 25.4641 14.6157 25.5075C15.1727 25.5292 15.7513 25.5148 16.5036 25.5148ZM65.3447 8.41462C65.0192 8.47972 64.7443 8.53037 64.4694 8.581C63.3844 8.77631 62.661 9.015 63.0082 10.4689C63.1601 11.0983 62.7117 11.0404 62.3355 11.0187C58.3498 10.8162 54.3714 10.5919 50.3857 10.4111C49.5538 10.3749 49.2139 10.0205 49.0981 9.22478C48.8594 7.51042 48.7509 5.76714 48.3313 4.08172C48.1505 3.35837 48.4181 3.11965 49.1053 3.14859C50.581 3.22092 52.0494 3.24262 53.5251 3.34389C55.4564 3.47409 57.3878 3.63323 59.1745 4.52296C60.8599 5.36205 62.5091 6.25901 64.0354 7.36575C64.4622 7.69126 65.0047 7.8721 65.3447 8.41462ZM44.512 10.3605C41.6548 10.2375 38.7975 10.1073 35.9403 10.006C35.1952 9.97708 34.9926 9.63709 35.0722 8.95714C35.2169 7.7202 35.4267 6.50496 35.7377 5.29696C35.9113 4.60253 36.2657 4.23363 36.9457 3.99492C39.4051 3.14136 41.9441 3.14859 44.4903 3.15583C45.5898 3.16306 45.8864 3.35836 46.0528 4.45786C46.3132 6.20115 46.5012 7.95167 46.7255 9.70219C46.7833 10.1434 46.6097 10.3677 46.1685 10.3677C45.6115 10.3605 45.0618 10.3605 44.512 10.3605ZM26.1966 4.09618C25.8277 4.86294 25.2707 5.34036 24.7933 5.86117C23.2526 7.51043 21.531 8.88481 19.2162 9.26096C18.992 9.29712 18.6954 9.41285 18.5725 9.20308C18.3989 8.89927 18.7388 8.75459 18.9269 8.60992C20.5183 7.36575 22.1386 6.15776 23.701 4.87742C24.4099 4.28427 25.1767 4.05278 26.1966 4.09618ZM34.0812 4.95698C33.7268 6.59176 33.3579 7.98061 33.2059 9.41286C33.1698 9.73113 32.9166 9.83239 32.6345 9.81069C32.0558 9.76729 31.4844 9.7239 30.9129 9.63709C30.3198 9.55029 30.1028 9.18138 30.4138 8.6461C30.7031 8.14698 31.0287 7.66234 31.4048 7.22833C32.1282 6.38923 32.9022 5.60077 34.0812 4.95698Z" fill="#3B4672"/>
<path d="M79.6542 30.8676C76.2185 30.8676 73.4333 28.0824 73.4333 24.6467C73.4333 21.2111 76.2185 18.4259 79.6542 18.4259C83.0898 18.4259 85.875 21.2111 85.875 24.6467C85.875 28.0824 83.0898 30.8676 79.6542 30.8676Z" fill="#3B4672"/>
<path d="M26.9568 30.8676C23.5212 30.8676 20.736 28.0824 20.736 24.6467C20.736 21.2111 23.5212 18.4259 26.9568 18.4259C30.3925 18.4259 33.1777 21.2111 33.1777 24.6467C33.1777 28.0824 30.3925 30.8676 26.9568 30.8676Z" fill="#3B4672"/>
<path d="M17 16H87L63.9274 12.3636L32.2514 11H17V16Z" fill="#DBFF00"/>
</svg>
