<svg width="54" height="48" viewBox="0 0 54 48" fill="none" xmlns="http://www.w3.org/2000/svg">
<rect x="0.773438" y="8.81488" width="49.4179" height="15.4431" rx="7.72154" fill="#DBFF00"/>
<path fill-rule="evenodd" clip-rule="evenodd" d="M38.7563 5.16975L39.3095 1.52716C39.4058 0.874939 39.7184 0.321167 40.2176 0.321167H45.2447C45.7439 0.321167 46.0566 0.874939 46.1528 1.52716L46.706 5.16975H38.7563ZM6.57264 5.16975L7.12587 1.52716C7.22208 0.874939 7.53478 0.321167 8.03389 0.321167H13.0611C13.5602 0.321167 13.8729 0.874939 13.9691 1.52716L14.5223 5.16975H6.57264ZM1.73186 7.16948H51.5528C52.0519 7.16948 52.4608 7.58789 52.4608 8.09859V41.5772H0.823834V8.09859C0.823834 7.58789 1.23275 7.16948 1.73186 7.16948ZM0.258576 43.5154H53.0201L53.2786 47.4226H0L0.258576 43.5154ZM6.35615 15.2053V17.7527H9.21251V20.6754H11.7021V17.7527H14.5584V15.2053H11.7021V12.2826H9.21251V15.2053H6.35615ZM38.7262 15.2053V17.7527H46.9225V15.2053H38.7262Z" fill="#3B4672"/>
</svg>
