<svg width="42" height="53" viewBox="0 0 42 53" fill="none" xmlns="http://www.w3.org/2000/svg">
<path fill-rule="evenodd" clip-rule="evenodd" d="M16.9421 5.07704H20.4792C21.5525 5.11729 22.4435 5.42594 23.2063 5.956L37.132 18.3823C39.1166 20.1537 40.1764 22.3008 40.3587 25.0316L41.999 49.7769C42.0867 51.1121 40.8919 52.2125 39.5486 52.2125H6.25644C4.90639 52.2125 3.8061 51.1188 3.8061 49.7769V45.8719C5.60167 46.6301 7.72799 47.0595 10.1581 47.0595C22.1803 47.0595 26.8784 36.5857 19.8244 27.2458C17.3268 23.9446 14.917 21.0326 13.4454 17.0874L13.4184 17.0068L13.3847 16.933C12.1021 14.0345 8.26126 14.0277 6.95847 16.9129L6.91796 17.0001L6.88421 17.0874C6.08769 19.2143 5.02115 21.0461 3.81285 22.7906V7.51265C3.81285 6.08349 4.96715 5.07704 6.36445 5.07704H12.4397L12.3654 3.77536H7.34998C7.42423 2.90981 7.51874 2.03084 7.60649 1.15858C7.66049 0.64194 8.0385 0.205811 8.56502 0.205811H15.4503C15.9768 0.205811 16.3346 0.64194 16.4088 1.15858L16.9488 5.07704H16.9421ZM21.5727 10.3374C20.5399 9.32426 19.4194 10.2234 19.7704 11.3506L21.2757 18.181C21.4647 19.0466 21.728 19.7041 23.2063 20.2141L33.5612 23.797C34.5332 24.1594 35.4377 22.8912 34.4859 22.0324L21.5727 10.3374ZM10.8061 18.0536C10.5023 17.3625 9.82732 17.3759 9.51681 18.0536C7.80225 22.6564 4.91314 26.0515 2.74632 28.9165C-2.75513 36.1965 0.147474 44.2548 10.1581 44.2548C20.1687 44.2548 23.0713 36.1965 17.5698 28.9165C15.403 26.0448 12.5207 22.6497 10.7994 18.0536H10.8061ZM11.1504 43.2484C3.44159 41.3965 0.687493 35.4115 4.04236 29.9431L4.01536 29.9766C-1.43208 36.2234 1.36252 43.1209 11.1571 43.2484H11.1504Z" fill="#3B4672"/>
</svg>
