<svg width="26" height="28" viewBox="0 0 26 28" fill="none" xmlns="http://www.w3.org/2000/svg">
<path d="M7.57742 27.8949C6.94548 27.8949 6.40676 27.6485 5.96125 27.1557C5.51575 26.6628 5.29299 26.0703 5.29299 25.3782C5.29299 24.6861 5.518 24.096 5.968 23.6081C6.41802 23.1202 6.95899 22.8762 7.59091 22.8762C8.22285 22.8762 8.76157 23.1226 9.20708 23.6155C9.65258 24.1084 9.87533 24.7009 9.87533 25.393C9.87533 26.0851 9.65033 26.6751 9.20033 27.163C8.75031 27.651 8.20933 27.8949 7.57742 27.8949ZM20.3061 27.8949C19.6742 27.8949 19.1355 27.6485 18.69 27.1557C18.2445 26.6628 18.0217 26.0703 18.0217 25.3782C18.0217 24.6861 18.2467 24.096 18.6967 23.6081C19.1467 23.1202 19.6877 22.8762 20.3196 22.8762C20.9516 22.8762 21.4903 23.1226 21.9358 23.6155C22.3813 24.1084 22.6041 24.7009 22.6041 25.393C22.6041 26.0851 22.3791 26.6751 21.929 27.163C21.479 27.651 20.9381 27.8949 20.3061 27.8949ZM5.92943 4.89233L9.42983 12.8387H18.5945L22.5722 4.89233H5.92943ZM4.97478 2.80118H23.7202C24.2073 2.80118 24.578 3.04515 24.8322 3.53308C25.0864 4.02102 25.0862 4.50895 24.8316 4.99688L20.5356 13.466C20.3023 13.9075 19.9993 14.2618 19.6268 14.529C19.2543 14.7962 18.8466 14.9298 18.4036 14.9298H8.76157L6.97955 18.5545H21.6494C21.9199 18.5545 22.1466 18.6553 22.3296 18.8568C22.5126 19.0584 22.6041 19.3082 22.6041 19.6062C22.6041 19.9041 22.5126 20.1519 22.3296 20.3494C22.1466 20.5469 21.9199 20.6456 21.6494 20.6456H7.26595C6.37494 20.6456 5.7332 20.3203 5.34073 19.6698C4.94826 19.0192 4.95356 18.2873 5.35664 17.4741L7.39323 13.3615L2.55632 2.13898H1.02887C0.758387 2.13898 0.531657 2.0382 0.348682 1.83664C0.165706 1.63505 0.0742188 1.38528 0.0742188 1.08731C0.0742188 0.789323 0.165706 0.541579 0.348682 0.344082C0.531657 0.146585 0.758387 0.0478363 1.02887 0.0478363H3.19276C3.38369 0.0478363 3.55552 0.0993598 3.70827 0.202407C3.86101 0.305454 3.97557 0.451428 4.05194 0.640328L4.97478 2.80118Z" fill="#3B4672"/>
</svg>
