<svg width="108" height="31" viewBox="0 0 108 31" fill="none" xmlns="http://www.w3.org/2000/svg">
<line y1="29.5794" x2="107.46" y2="29.5794" stroke="#3B4672"/>
<path d="M56.4209 26.4288C62.4392 26.4288 68.4575 26.436 74.4758 26.4288C75.8719 26.4288 75.937 26.3275 75.8791 24.9242C75.7923 22.6674 75.626 20.4105 76.8991 18.3489C78.5628 15.6652 80.9209 14.1317 84.1109 14.1173C87.2865 14.1028 89.6735 15.5784 91.3807 18.2404C92.4729 19.9475 92.5597 21.821 92.4874 23.7524C92.4295 25.1846 92.6683 25.4016 94.1222 25.4016C94.2669 25.4016 94.4115 25.3944 94.5562 25.3944C97.4135 25.5246 98.1079 24.483 98.4045 21.7631C98.5057 20.8517 98.4334 19.9113 98.4117 18.9855C98.4045 18.7612 98.3755 18.4357 98.2309 18.3417C97.2109 17.6979 97.1314 16.5405 96.7335 15.5857C95.9812 13.7773 94.7009 12.7284 92.8057 12.2655C87.5469 10.9707 82.2519 9.84947 76.8701 9.29972C74.3094 9.03932 72.19 7.93982 70.0127 6.81862C66.49 5.01023 63.0106 3.10056 59.1985 1.92872C57.0285 1.256 54.7789 0.952195 52.5292 0.894327C47.7334 0.764123 42.9303 0.72795 38.1272 1.00283C35.6027 1.1475 33.2879 2.06615 30.9949 3.04991C28.8393 3.97581 26.7343 5.00298 24.7378 6.23992C22.2061 7.80237 19.3055 8.15683 16.4988 8.80785C15.4789 9.04655 14.4807 9.32866 13.5837 9.88564C12.8676 10.3269 12.5276 10.9634 12.4046 11.7953C12.1225 13.7773 12.1008 15.7738 11.9272 17.7558C11.8911 18.1825 11.8332 18.5514 11.4064 18.7685C11.1243 18.9131 11.023 19.188 11.023 19.4991C11.023 20.7143 10.9724 21.9223 11.2328 23.1303C11.4209 24.02 11.9272 24.577 12.8025 24.794C14.6904 25.257 16.629 25.3872 18.5604 25.5101C19.4357 25.568 19.7829 25.0399 19.6888 23.9621C19.602 22.9784 19.5948 22.0091 19.7611 21.0253C20.4917 16.7648 24.3762 13.7845 28.8031 14.11C32.8756 14.4138 36.2971 18.0957 36.3911 22.2478C36.4128 23.1737 36.3116 24.0923 36.232 25.0182C36.1669 25.7705 36.4273 26.2624 37.2519 26.3058C37.7728 26.3347 38.2863 26.4071 38.8071 26.4143C44.6735 26.4288 50.5472 26.4216 56.4209 26.4288ZM67.3363 8.41723C66.707 8.53296 66.2223 8.59082 65.7449 8.72102C64.7973 8.9742 64.5007 9.32865 64.7105 10.2907C64.8986 11.1443 64.5514 11.1732 63.8787 11.1371C59.7772 10.9345 55.6831 10.7537 51.5816 10.5873C50.1928 10.5294 50.0047 10.4065 49.8166 9.02484C49.5635 7.16582 49.4477 5.28509 48.9414 3.46223C48.7822 2.89801 49.1005 2.82568 49.5418 2.81122C54.7789 2.64484 59.7194 3.65754 64.2404 6.4063C65.2458 7.02838 66.3308 7.5275 67.3363 8.41723ZM42.8941 2.81846C43.6753 2.81846 44.4566 2.85462 45.2378 2.81122C45.9756 2.76782 46.3879 3.06439 46.5253 3.78051C46.9015 5.76974 47.0679 7.7879 47.321 9.7916C47.3861 10.3486 47.1619 10.5728 46.5832 10.5439C43.2124 10.3703 39.8343 10.2112 36.4562 10.0737C35.8631 10.052 35.5665 9.88563 35.5231 9.24184C35.4435 7.88917 35.3784 6.52204 35.1542 5.19106C34.995 4.25794 35.3205 3.89625 36.1379 3.62861C38.3369 2.91972 40.6011 2.78229 42.8941 2.81846ZM32.4199 9.835C31.9569 9.835 31.4868 9.87839 31.0311 9.82776C29.8954 9.70479 29.7507 8.70657 29.4252 7.89641C29.1503 7.20922 29.7073 6.89818 30.1486 6.58714C31.1396 5.87825 32.268 5.40806 33.3458 4.84385C33.8087 4.60514 33.9679 4.77152 34.004 5.23446C34.0691 6.09526 34.1342 6.96328 34.2355 7.82407C34.4742 9.90734 34.4814 9.90734 32.4199 9.835Z" fill="#3B4672"/>
<path d="M84.11 29.1341C80.4666 29.1341 77.513 26.1806 77.513 22.5371C77.513 18.8937 80.4666 15.9401 84.11 15.9401C87.7535 15.9401 90.707 18.8937 90.707 22.5371C90.707 26.1806 87.7535 29.1341 84.11 29.1341Z" fill="#3B4672"/>
<path d="M27.8776 29.1341C24.2342 29.1341 21.2806 26.1806 21.2806 22.5371C21.2806 18.8937 24.2342 15.9401 27.8776 15.9401C31.521 15.9401 34.4746 18.8937 34.4746 22.5371C34.4746 26.1806 31.521 29.1341 27.8776 29.1341Z" fill="#3B4672"/>
<path d="M37.8859 22.0491L73.839 18.1544L75.8551 16.2071L32.5098 13.0188L37.8859 18.1544V22.0491Z" fill="#DBFF00"/>
</svg>
