<svg width="26" height="29" viewBox="0 0 26 29" fill="none" xmlns="http://www.w3.org/2000/svg">
<path d="M14.0689 28.5594C13.7684 28.5594 13.5165 28.4474 13.3132 28.2234C13.1099 27.9995 13.0082 27.7219 13.0082 27.3909C13.0082 27.0598 13.1099 26.7845 13.3132 26.565C13.5165 26.3456 13.7684 26.2359 14.0689 26.2359H23.5801V3.00092H14.0689C13.7684 3.00092 13.5165 2.88894 13.3132 2.66498C13.1099 2.44099 13.0082 2.16347 13.0082 1.83239C13.0082 1.5013 13.1099 1.22602 13.3132 1.00658C13.5165 0.787142 13.7684 0.677422 14.0689 0.677422H23.5801C24.1458 0.677422 24.6409 0.909771 25.0651 1.37447C25.4894 1.83917 25.7016 2.38132 25.7016 3.00092V26.2359C25.7016 26.8555 25.4894 27.3976 25.0651 27.8623C24.6409 28.327 24.1458 28.5594 23.5801 28.5594H14.0689ZM13.1496 15.7801H1.30487C1.00433 15.7801 0.752405 15.6682 0.5491 15.4442C0.345794 15.2202 0.244141 14.9427 0.244141 14.6116C0.244141 14.2805 0.345794 14.0053 0.5491 13.7858C0.752405 13.5664 1.00433 13.4567 1.30487 13.4567H13.0789L10.215 10.3199C10.0028 10.0876 9.90265 9.81651 9.91443 9.50671C9.92622 9.19691 10.0382 8.92583 10.2503 8.69348C10.4625 8.46113 10.7159 8.34496 11.0105 8.34496C11.3052 8.34496 11.5586 8.46113 11.7707 8.69348L16.4733 13.8439C16.6854 14.0763 16.7915 14.3473 16.7915 14.6571C16.7915 14.9669 16.6854 15.238 16.4733 15.4703L11.8061 20.582C11.5986 20.8144 11.3523 20.9241 11.0671 20.9112C10.7819 20.8983 10.5286 20.7757 10.3072 20.5433C10.1043 20.311 10.0028 20.0334 10.0028 19.7107C10.0028 19.388 10.1089 19.1105 10.321 18.8781L13.1496 15.7801Z" fill="#3B4672"/>
</svg>
