<svg width="48" height="47" viewBox="0 0 48 47" fill="none" xmlns="http://www.w3.org/2000/svg">
<circle cx="24.0408" cy="23.115" r="23.115" fill="#DBFF00"/>
<path d="M2.36707 46.0339L16.0683 32.3327C17.1102 33.2357 18.3251 33.939 19.7129 34.4426C21.1007 34.9461 22.5775 35.1979 24.1432 35.1979C27.8998 35.1979 31.079 33.8955 33.681 31.2907C36.283 28.6859 37.584 25.5428 37.584 21.8614C37.584 18.1799 36.2816 15.0368 33.6768 12.432C31.072 9.82718 27.9202 8.52478 24.2214 8.52478C20.5225 8.52478 17.3794 9.82718 14.792 12.432C12.2045 15.0368 10.9108 18.1825 10.9108 21.8692C10.9108 23.3574 11.1539 24.7961 11.6402 26.1853C12.1264 27.5746 12.8557 28.877 13.8282 30.0925L0.0748482 43.7417L2.36707 46.0339ZM24.1953 32.0722C21.3734 32.0722 18.9749 31.0737 16.9995 29.0767C15.0242 27.0796 14.0366 24.6745 14.0366 21.8614C14.0366 19.0482 15.0242 16.6431 16.9995 14.6461C18.9749 12.649 21.3734 11.6505 24.1953 11.6505C27.0461 11.6505 29.4693 12.649 31.4649 14.6461C33.4604 16.6431 34.4582 19.0482 34.4582 21.8614C34.4582 24.6745 33.4604 27.0796 31.4649 29.0767C29.4693 31.0737 27.0461 32.0722 24.1953 32.0722ZM25.8103 27.644V23.3721H30.0822V20.2464H25.8103V16.0266H22.6845V20.2464H18.4647V23.3721H22.6845V27.644H25.8103Z" fill="#3B4672"/>
</svg>
