<svg width="60" height="51" viewBox="0 0 60 51" fill="none" xmlns="http://www.w3.org/2000/svg">
<path d="M39.0332 31.6931L52.5528 50.6793C52.6545 50.8205 52.8521 50.8544 52.9933 50.7527L56.1502 48.5051C56.2913 48.4034 56.3252 48.2058 56.2236 48.0646L41.9867 28.0732C40.9985 29.2817 40.0102 30.4902 39.0332 31.6931Z" fill="#3B4672"/>
<path d="M14.1005 13.9889L13.5132 13.1644C13.4511 13.0741 13.468 12.9498 13.5584 12.8877L20.1375 8.20043C20.9281 7.6357 22.0293 7.82207 22.5941 8.61269L31.4377 21.0311C32.505 19.9412 33.5724 18.8512 34.6454 17.767L26.2648 5.99799C24.26 3.18563 20.3408 2.5249 17.5284 4.52969L10.9324 9.22824C10.842 9.29036 10.7178 9.27341 10.6557 9.18305L10.1022 8.40938C9.74081 7.90677 9.04054 7.79383 8.54358 8.14961L0.20251 14.1301C-0.0177341 14.2882 -0.0629194 14.5875 0.0895576 14.8078L4.82765 21.4151C4.98577 21.6353 5.28508 21.6805 5.50533 21.5281L13.8464 15.5476C14.3434 15.1918 14.4619 14.4915 14.1005 13.9889Z" fill="#3B4672"/>
<path d="M57.0137 15.4346C59.3178 12.8425 59.8486 9.29603 58.7079 6.25779C58.6401 6.07142 58.3916 6.02624 58.2561 6.16743L52.9589 11.6001C52.9589 11.6001 52.2982 11.346 50.4289 9.53321C48.5597 7.72043 48.3225 7.10488 48.3225 7.10488L53.7608 1.52535C53.8964 1.38981 53.8512 1.15262 53.6705 1.07921C50.2369 -0.315674 46.1483 0.508844 43.5449 3.43979C41.1278 6.15614 40.6535 9.92853 42.0257 13.0571C42.0822 13.1927 42.0596 13.3508 41.958 13.4524L15.8505 40.0907C13.7723 42.2141 13.6537 45.6703 15.7545 47.7654C18.0304 50.03 21.7294 49.8041 23.7172 47.3419L47.2608 18.1736C47.3512 18.0606 47.5036 18.0155 47.6448 18.0606C50.9033 19.0602 54.5967 18.151 57.0137 15.4346ZM18.9509 47.116L16.4943 44.9305L17.1607 41.7115L20.2837 40.6781L22.7403 42.8636L22.0738 46.0825L18.9509 47.116Z" fill="#3B4672"/>
</svg>
