<svg width="108" height="49" viewBox="0 0 108 49" fill="none" xmlns="http://www.w3.org/2000/svg">
<line x1="4.37114e-08" y1="48.5" x2="108" y2="48.5" stroke="#3B4672"/>
<path d="M61.4796 42.4544C67.1881 42.4544 72.8966 42.4544 78.6051 42.4544C79.7167 42.4544 79.7167 42.4473 79.559 41.3357C78.892 36.624 81.9901 32.3068 86.6229 31.482C91.0405 30.7004 95.4223 33.6478 96.4765 38.1229C96.749 39.2846 96.7849 40.4536 96.5339 41.6225C96.4048 42.225 96.5841 42.4688 97.2152 42.4544C98.3626 42.4257 99.51 42.4401 100.657 42.4544C101.432 42.4616 101.826 42.1532 101.812 41.3285C101.783 39.7508 101.791 38.1731 101.791 36.5953C101.791 35.7634 101.454 35.2758 100.564 35.326C99.9547 35.3618 99.675 35.0893 99.6607 34.4726C99.6392 33.4686 99.5818 32.4717 99.5531 31.4677C99.4885 29.3163 99.3379 27.1648 99.4025 25.0205C99.4598 22.9623 98.3626 22.3025 96.6558 22.1376C94.9131 21.9655 93.1704 21.8794 91.4278 21.7503C87.5695 21.4635 83.7112 21.1694 79.8601 20.8682C78.8776 20.7894 78.347 20.2873 78.1103 19.2618C77.5724 16.9167 77.0274 14.5717 76.5111 12.2194C76.1453 10.5556 75.5142 9.9819 73.8218 9.91735C72.8177 9.88149 71.8137 9.90302 70.8097 9.90302C70.4296 9.90302 70.0782 9.87432 69.7914 9.55878C68.3571 8.00256 66.5786 6.97704 64.5634 6.38181C63.9036 6.18818 63.7028 5.83679 63.7386 5.2057C63.8032 3.90048 63.6096 2.63829 63.1721 1.40479C62.9856 0.866928 62.792 0.529873 62.1394 0.737846C61.5083 0.938648 61.3433 1.35458 61.5226 1.93547C61.8023 2.84625 61.9386 3.77139 61.9816 4.7252C62.0175 5.5284 61.8023 5.73638 60.9489 5.62881C56.7823 5.09095 52.5941 5.18418 48.406 5.27024C47.0147 5.29892 46.7207 5.62881 46.5629 7.01291C46.5127 7.46471 46.5127 7.93084 46.5127 8.38982C46.5127 16.1924 46.5127 23.995 46.5055 31.7976C46.5055 33.447 46.3406 33.5474 44.6696 33.6263C43.5652 33.6765 42.7549 33.3682 41.9158 32.608C37.3117 28.4198 30.9577 28.2621 26.2246 32.1633C25.6795 32.6152 25.3568 32.4502 24.8907 32.1131C22.5814 30.4565 20.0857 29.4023 17.1526 29.4382C14.3485 29.474 11.9604 30.4493 9.82334 32.1992C9.55799 32.4143 9.25677 32.608 9.04163 32.8733C8.53963 33.4757 7.93008 33.7124 7.14839 33.6192C6.33801 33.5259 6.0081 33.9634 6.0081 34.7451C6.01527 36.9826 6.02244 39.2201 6.00092 41.4576C5.99375 42.1963 6.31648 42.4831 7.0408 42.4688C7.77229 42.4544 8.21692 42.1891 8.15237 41.4074C7.95157 38.9547 8.50381 36.7316 10.1031 34.824C14.4561 29.6318 21.2834 30.7577 24.2165 35.6415C24.9409 36.8463 25.7154 36.8392 26.4182 35.6343C28.1824 32.6151 32.0837 30.8294 35.4041 31.5322C39.1045 32.3068 41.8943 35.2327 42.3532 38.8328C42.4393 39.5141 42.4536 40.2026 42.4967 40.891C42.5684 42.06 42.9126 42.4401 44.0816 42.4616C45.9175 42.4975 47.7534 42.4831 49.5893 42.4831C53.5695 42.4616 57.5281 42.4544 61.4796 42.4544ZM71.6345 16.9454C71.6416 18.0642 71.6201 19.1829 71.6488 20.2945C71.6703 21.0475 71.3978 21.4061 70.6018 21.3846C68.8519 21.3487 67.1092 21.3559 65.3594 21.3702C64.6064 21.3774 64.2693 21.0332 64.2693 20.273C64.2837 18.1215 64.2908 15.9773 64.2621 13.8258C64.255 12.9868 64.6853 12.5708 65.4455 12.5565C67.1953 12.5134 68.938 12.535 70.6878 12.5421C71.3619 12.5421 71.6488 12.915 71.6345 13.5892C71.6201 14.7079 71.6345 15.8267 71.6345 16.9454ZM53.7488 15.8697C53.3471 15.8697 52.9455 15.8697 52.5439 15.8697C49.9048 15.8482 50.1415 16.2283 50.1486 13.3095C50.1486 13.2808 50.1558 13.2521 50.1486 13.2234C50.1415 12.7358 50.3853 12.4704 50.873 12.4704C52.7878 12.4704 54.7097 12.4632 56.6245 12.4776C57.2485 12.4776 57.4277 12.9222 57.3345 13.417C57.3345 15 57.3345 15.8482 56.7393 15.8482C56.5958 15.9199 56.4022 15.8697 56.2301 15.8697C55.4125 15.8697 54.5806 15.8697 53.7488 15.8697ZM73.1907 16.9885C73.1907 15.8984 73.1835 14.8155 73.1907 13.7254C73.1978 13.1947 73.0759 12.5995 73.9078 12.5278C74.6393 12.4632 75.0266 12.7358 75.1556 13.4744C75.5859 15.8052 76.0377 18.1359 76.5039 20.4666C76.6258 21.0834 76.3318 21.3344 75.7867 21.3631C75.2417 21.3918 74.6967 21.3631 74.1588 21.3846C73.4703 21.4133 73.162 21.1264 73.1835 20.4236C73.2122 19.2762 73.1907 18.1359 73.1907 16.9885Z" fill="#3B4672"/>
<path d="M87.9916 32.3498C92.3232 32.3498 95.8301 35.8567 95.8301 40.1883C95.8301 44.5199 92.3232 48.0267 87.9916 48.0267C83.6601 48.0267 80.1532 44.5199 80.1532 40.1883C80.1532 35.8567 83.6601 32.3498 87.9916 32.3498ZM87.9916 43.6449C89.8993 43.6449 91.4411 42.1031 91.4411 40.1954C91.4411 38.2878 89.8993 36.746 87.9916 36.746C86.084 36.746 84.5422 38.2878 84.5422 40.1954C84.535 42.0959 86.084 43.6449 87.9916 43.6449Z" fill="#3B4672"/>
<path d="M87.9916 38.381C88.9884 38.381 89.7988 39.1914 89.7988 40.1883C89.7988 41.1851 88.9884 41.9955 87.9916 41.9955C86.9948 41.9955 86.1844 41.1851 86.1844 40.1883C86.1772 39.1914 86.9876 38.381 87.9916 38.381Z" fill="#3B4672"/>
<path d="M33.7182 32.3498C38.0498 32.3498 41.5566 35.8567 41.5566 40.1883C41.5566 44.5199 38.0498 48.0267 33.7182 48.0267C29.3866 48.0267 25.8798 44.5199 25.8798 40.1883C25.8798 35.8567 29.3938 32.3498 33.7182 32.3498ZM33.7182 43.6449C35.6258 43.6449 37.1677 42.1031 37.1677 40.1954C37.1677 38.2878 35.6258 36.746 33.7182 36.746C31.8106 36.746 30.2687 38.2878 30.2687 40.1954C30.2687 42.0959 31.8178 43.6449 33.7182 43.6449Z" fill="#3B4672"/>
<path d="M33.7182 38.381C34.715 38.381 35.5254 39.1914 35.5254 40.1883C35.5254 41.1851 34.715 41.9955 33.7182 41.9955C32.7214 41.9955 31.911 41.1851 31.911 40.1883C31.911 39.1914 32.7214 38.381 33.7182 38.381Z" fill="#3B4672"/>
<path d="M16.853 32.3498C21.1846 32.3498 24.6914 35.8567 24.6914 40.1883C24.6914 44.5199 21.1846 48.0267 16.853 48.0267C12.5214 48.0267 9.01453 44.5199 9.01453 40.1883C9.01453 35.8567 12.5214 32.3498 16.853 32.3498ZM16.853 43.6449C18.7606 43.6449 20.3025 42.1031 20.3025 40.1954C20.3025 38.2878 18.7606 36.746 16.853 36.746C14.9453 36.746 13.4035 38.2878 13.4035 40.1954C13.3963 42.0959 14.9453 43.6449 16.853 43.6449Z" fill="#3B4672"/>
<path d="M16.8529 38.381C17.8498 38.381 18.6602 39.1914 18.6602 40.1883C18.6602 41.1851 17.8498 41.9955 16.8529 41.9955C15.8561 41.9955 15.0457 41.1851 15.0457 40.1883C15.0385 39.1914 15.8489 38.381 16.8529 38.381Z" fill="#3B4672"/>
<rect x="50" y="17" width="7" height="16" rx="1" fill="#DBFF00"/>
</svg>
