<svg width="23" height="18" viewBox="0 0 23 18" fill="none" xmlns="http://www.w3.org/2000/svg">
<path d="M2.9861 17.345C2.40448 17.345 1.90657 17.1379 1.49238 16.7237C1.07819 16.3095 0.871094 15.8116 0.871094 15.23V2.53994C0.871094 1.95831 1.07819 1.4604 1.49238 1.04621C1.90657 0.632022 2.40448 0.424927 2.9861 0.424927H19.9062C20.4878 0.424927 20.9857 0.632022 21.3999 1.04621C21.8141 1.4604 22.0212 1.95831 22.0212 2.53994V15.23C22.0212 15.8116 21.8141 16.3095 21.3999 16.7237C20.9857 17.1379 20.4878 17.345 19.9062 17.345H2.9861ZM11.4461 9.94247L2.9861 4.65495V15.23H19.9062V4.65495L11.4461 9.94247ZM11.4461 7.82746L19.9062 2.53994H2.9861L11.4461 7.82746ZM2.9861 4.65495V2.53994V15.23V4.65495Z" fill="#3B4572"/>
</svg>
